<svg xmlns="http://www.w3.org/2000/svg" width="16" height="17" fill="none" viewBox="0 0 16 17">
    <path fill="#7466FF" d="M9.5 9.946c.398 0 .78.158 1.06.44.282.281.44.663.44 1.06v.5c0 1.972-1.86 4-5 4-3.14 0-5-2.028-5-4v-.5c0-.397.158-.779.44-1.06.28-.282.662-.44 1.06-.44h7zm0 1h-7c-.133 0-.26.053-.354.147-.093.094-.146.22-.146.353v.5c0 1.438 1.432 3 4 3s4-1.562 4-3v-.5c0-.132-.053-.26-.146-.353-.094-.094-.221-.147-.354-.147zM6 3.446c.73 0 1.429.29 1.945.806.515.516.805 1.215.805 1.944 0 .73-.29 1.43-.805 1.945-.516.516-1.216.805-1.945.805-.73 0-1.429-.29-1.945-.805-.515-.516-.805-1.215-.805-1.945 0-.729.29-1.428.805-1.944.516-.516 1.216-.806 1.945-.806zm0 1c-.464 0-.91.185-1.237.513-.329.328-.513.773-.513 1.237 0 .464.184.91.513 1.238.328.328.773.512 1.237.512.464 0 .91-.184 1.237-.512.329-.328.513-.774.513-1.238 0-.464-.184-.909-.513-1.237C6.91 4.63 6.464 4.446 6 4.446zm8.825-2.38c.089.076.149.181.168.297.02.115-.002.234-.061.335l-.052.073-3 3.5c-.08.094-.191.155-.313.171-.122.017-.245-.012-.347-.08l-.074-.062-1.5-1.5c-.089-.088-.14-.206-.147-.33-.005-.126.036-.248.116-.344.08-.096.193-.159.317-.176.124-.016.25.014.352.085l.07.057 1.118 1.12 2.648-3.09c.043-.05.095-.092.153-.121.059-.03.123-.048.188-.053.066-.005.131.003.194.023.062.02.12.053.17.095z"/>
</svg>
