<svg xmlns="http://www.w3.org/2000/svg" width="72" height="73" fill="none" viewBox="0 0 72 73">
    <path fill="#fff" d="M0 0H72V72H0z" transform="translate(0 0.946289)"/>
    <path fill="#47494D" stroke="#47494D" stroke-width=".5" d="M55.655 35.275h0c-.598.33-.82 1.078-.491 1.68h0l.22-.12-.22.12.491-1.68zm0 0c3.819-2.097 5.96-5.185 5.96-8.45 0-2.958-1.753-5.669-4.641-7.65-2.886-1.982-6.885-3.217-11.308-3.217s-8.422 1.235-11.308 3.216c-2.888 1.982-4.641 4.693-4.641 7.652 0 2.958 1.753 5.669 4.64 7.651 2.887 1.981 6.886 3.216 11.309 3.216 1.72 0 3.398-.186 4.99-.551h0m4.999-1.867l-4.998 1.867m0 0c.251-.058.521-.038.764.066m-.764-.066l.764.066m0 0h.001zm8.758 5.472h0c-.242.265-.579.405-.922.405-.167 0-.33-.033-.485-.098h0l-7.955-3.34c-1.659.35-3.387.527-5.151.527-5.062 0-9.662-1.482-13.003-3.888-3.341-2.405-5.44-5.748-5.44-9.46 0-3.713 2.099-7.056 5.44-9.46 3.34-2.406 7.941-3.889 13.003-3.889s9.662 1.483 13.003 3.888c3.341 2.405 5.44 5.748 5.44 9.46 0 3.9-2.257 7.482-6.181 9.99l2.425 4.438.001.001c.25.463.183 1.034-.175 1.426zm-3.72-3.356l.37.156.192.351-.37-.155-.192-.352z"/>
    <ellipse cx="27.356" cy="44.119" fill="#fff" rx="24.856" ry="18.047"/>
    <path fill="#47494D" stroke="#47494D" stroke-width=".4" d="M12.48 60.196h0c.273.299.653.457 1.041.457.188 0 .371-.038.548-.111h0l9.658-4.056c2.01.426 4.107.643 6.247.643 6.108 0 11.655-1.79 15.68-4.687 4.026-2.898 6.542-6.917 6.542-11.37 0-4.452-2.516-8.47-6.541-11.368-4.026-2.898-9.573-4.687-15.681-4.687-6.108 0-11.656 1.789-15.682 4.687-4.025 2.898-6.541 6.916-6.541 11.369 0 4.704 2.737 9.033 7.515 12.057l-2.982 5.457h0c-.282.523-.207 1.166.196 1.61zm5.352-8.805h0c-4.644-2.55-7.268-6.318-7.268-10.318 0-3.625 2.148-6.935 5.663-9.347 3.513-2.412 8.375-3.912 13.747-3.912 5.371 0 10.233 1.5 13.747 3.912 3.514 2.412 5.662 5.722 5.662 9.347 0 3.625-2.148 6.934-5.663 9.347-3.513 2.411-8.375 3.911-13.746 3.911-2.09 0-4.13-.226-6.065-.67h0c-.284-.065-.589-.043-.862.075h-.001l-6.369 2.675 1.709-3.127c.37-.676.121-1.52-.554-1.893z"/>
    <path stroke="#9266FF" stroke-width="3" d="M18.38 41.523h4.396M27.776 41.523h4.395M37.171 41.523h4.396"/>
</svg>
