<svg xmlns="http://www.w3.org/2000/svg" width="72" height="73" fill="none" viewBox="0 0 72 73">
    <path fill="#fff" d="M0 0H72V72H0z" transform="translate(0 0.946289)"/>
    <path stroke="#9266FF" stroke-linecap="round" stroke-linejoin="round" stroke-width="3" d="M35.166 8.054c-8.018 0-14.52 6.423-14.52 14.344h9.416c-.007-7.921 2.28-14.344 5.104-14.344zM30.056 22.398H20.64c0 7.922 6.501 14.345 14.52 14.345-2.818 0-5.104-6.423-5.104-14.345zM35.167 8.054c2.817 0 5.104 6.423 5.104 14.344h9.415c0-7.921-6.501-14.344-14.52-14.344zM35.167 36.743c8.018 0 14.519-6.423 14.519-14.345h-9.415c0 7.922-2.287 14.345-5.104 14.345z"/>
    <path stroke="#9266FF" stroke-linecap="round" stroke-linejoin="round" stroke-width="3" d="M30.056 22.398H40.27c0-7.921-2.287-14.344-5.104-14.344-2.825 0-5.111 6.423-5.111 14.344zM40.27 22.398H30.057c0 7.922 2.286 14.345 5.11 14.345 2.818 0 5.105-6.423 5.105-14.345z"/>
    <path fill="#fff" d="M25.751 49.692h15.924c2.115 0 3.834-1.698 3.834-3.787 0-1.004-.396-1.92-1.046-2.599-.703-.738-1.69-1.196-2.795-1.196H20.244L6.66 56.366l11.672 9.06 7.166-8.151h16.754l20.094-15.157s2.585-3.788-.165-6.18c-2.22-1.927-5.335-.494-5.335-.494l-12.42 7.825"/>
    <path stroke="#47494D" stroke-width="3" d="M25.751 49.692h15.924c2.115 0 3.834-1.698 3.834-3.787 0-1.004-.396-1.92-1.046-2.599-.703-.738-1.69-1.196-2.795-1.196H20.244L6.66 56.366l11.672 9.06 7.166-8.151h16.754l20.094-15.157s2.585-3.788-.165-6.18c-2.22-1.927-5.335-.494-5.335-.494l-12.42 7.825M52.537 15.227h4.396M58.933 15.227h8.269M52.537 20.066h4.396M58.933 20.066h8.269"/>
</svg>
