<svg xmlns="http://www.w3.org/2000/svg" width="72" height="73" fill="none" viewBox="0 0 72 73">
    <path fill="#fff" d="M0 0H72V72H0z" transform="translate(0 0.946289)"/>
    <g clip-path="url(#clip0)">
        <path stroke="#47494D" stroke-linecap="round" stroke-linejoin="round" stroke-width="3" d="M26.37 55.346v-.15c0-.276.224-.5.5-.5h19.78c.276 0 .5-.224.5-.5v-34.94c0-.276-.224-.5-.5-.5H12.08c-.276 0-.5.224-.5.5v36.1c0 3.884 2.357 7.229 5.718 8.67.06.027.126.04.192.04h2.98c.066 0 .132-.013.193-.04 3.35-1.452 5.707-4.796 5.707-8.68z"/>
        <path fill="#fff" d="M47.14 64.056h.53c.066 0 .131-.013.192-.039 3.361-1.442 5.718-4.786 5.718-8.67v-.15c0-.277-.224-.5-.5-.5h-5.94"/>
        <path stroke="#47494D" stroke-width="3" d="M47.14 64.056h.53c.066 0 .131-.013.192-.039 3.361-1.442 5.718-4.786 5.718-8.67v-.15c0-.277-.224-.5-.5-.5h-5.94"/>
        <path fill="#fff" d="M47.14 54.696H26.87c-.276 0-.5.224-.5.5v.15c0 3.028-1.432 5.728-3.655 7.454-.432.336-.2 1.256.346 1.256H47.14"/>
        <path stroke="#47494D" stroke-width="3" d="M47.14 54.696H26.87c-.276 0-.5.224-.5.5v.15c0 3.028-1.432 5.728-3.655 7.454-.432.336-.2 1.256.346 1.256H47.14"/>
        <path fill="#fff" stroke="#47494D" stroke-width="3" d="M59.91 9.836H36.5c-.276 0-.5.224-.5.5v29.67c0 .276.224.5.5.5h23.41c.276 0 .5-.224.5-.5v-29.67c0-.276-.224-.5-.5-.5z"/>
        <path stroke="#9266FF" stroke-width="3" d="M42.58 16.757h10.64M42.58 22.514h10.64"/>
    </g>
    <defs>
        <clipPath id="clip0">
            <path fill="#fff" d="M0 0H51.84V57.22H0z" transform="translate(10.08 8.33594)"/>
        </clipPath>
    </defs>
</svg>
