<svg xmlns="http://www.w3.org/2000/svg" width="72" height="73" fill="none" viewBox="0 0 72 73">
    <path fill="#fff" d="M0 0H72V72H0z" transform="translate(0 0.946289)"/>
    <path stroke="#47494D" stroke-linecap="round" stroke-linejoin="round" stroke-miterlimit="10" stroke-width="3" d="M57.064 36.946c0 12.343-10.007 22.35-22.35 22.35-12.343 0-22.35-10.007-22.35-22.35 0-12.343 10.007-22.35 22.35-22.35 12.343 0 22.35 10.007 22.35 22.35z"/>
    <path stroke="#47494D" stroke-linecap="round" stroke-linejoin="round" stroke-miterlimit="10" stroke-width="2.2" d="M41.672 40.39c-1.31 2.657-4.051 4.48-7.208 4.48-3.11 0-5.802-1.764-7.149-4.35"/>
    <path fill="#47494D" stroke="#47494D" d="M43.888 32.943c0 1.069-.87 1.93-1.93 1.93-1.072 0-1.943-.873-1.943-1.93 0-1.07.872-1.942 1.943-1.942 1.056 0 1.93.87 1.93 1.942zM29.317 32.943c0 1.069-.87 1.93-1.93 1.93-1.072 0-1.943-.873-1.943-1.93 0-1.07.873-1.942 1.943-1.942 1.056 0 1.93.87 1.93 1.942z"/>
    <path fill="#fff" stroke="#9266FF" stroke-width="3" d="M58.959 15.462l-.004.001c-1.099.318-2.058.998-2.72 1.931l-1.223 1.724-1.223-1.724c-.662-.932-1.62-1.613-2.718-1.93-2.305-.66-4.11.51-4.672 1.666h0c-.92 1.883-.673 4.157 1.404 7.006l11.156-8.674zm0 0c2.29-.668 4.1.507 4.666 1.668l1.349-.657-1.348.658c.92 1.883.672 4.158-1.4 7.007l-.002.004m-3.265-8.68l3.265 8.68m0 0c-1.582 2.19-3.857 4.425-7.208 7.07m7.208-7.07l-7.208 7.07m0 0c-3.352-2.65-5.627-4.904-7.213-7.076l7.213 7.075z"/>
</svg>
