<svg xmlns="http://www.w3.org/2000/svg" width="16" height="17" fill="none" viewBox="0 0 16 17">
    <path fill="#7466FF" fill-rule="evenodd" d="M11.491 2.863c.09-.09.212-.14.339-.14.127 0 .248.05.338.14l1.915 1.915c.045.044.08.097.104.155.024.058.037.12.037.184 0 .063-.013.125-.037.183-.024.058-.06.111-.104.156L10.31 9.23c-.073.073-.157.134-.25.18L6.3 11.29c-.09.045-.19.06-.29.044-.099-.016-.19-.063-.262-.134-.07-.07-.117-.162-.134-.261-.016-.1 0-.2.044-.29l1.88-3.762c.046-.092.107-.176.18-.249l3.774-3.775zm.34 1.016L8.392 7.316 7.4 9.304l.243.243 1.989-.994 3.436-3.436-1.238-1.238zM9.435 3.68l-.957.957H4.553c-.41 0-.69 0-.904.018-.21.017-.318.048-.392.086-.18.092-.327.239-.419.419-.038.075-.069.182-.086.392-.018.215-.018.494-.018.904v5.937c0 .41 0 .69.018.904.017.21.048.318.086.392.092.18.238.327.419.419.074.038.182.069.392.086.216.018.494.018.904.018h5.937c.41 0 .689 0 .903-.018.211-.017.318-.048.393-.086.18-.092.327-.239.418-.419.039-.074.07-.182.087-.392.018-.216.018-.494.018-.904V8.468l.957-.957v4.902c0 .386 0 .704-.02.963-.023.27-.07.517-.188.749-.184.36-.477.653-.837.837-.233.119-.48.165-.749.188-.258.02-.577.02-.962.02H4.534c-.386 0-.704 0-.963-.02-.27-.023-.517-.07-.75-.188-.36-.184-.652-.477-.836-.837-.119-.233-.166-.48-.188-.749-.02-.258-.02-.577-.02-.963V6.438c0-.386 0-.704.02-.963.022-.27.07-.517.188-.749.184-.36.477-.653.837-.837.233-.118.48-.165.749-.187.258-.021.577-.021.963-.021h4.902z" clip-rule="evenodd"/>
</svg>
