<svg xmlns="http://www.w3.org/2000/svg" width="84" height="85" fill="none" viewBox="0 0 84 85">
    <path fill="#fff" d="M0 0H84V84H0z" transform="translate(0 0.62793)"/>
    <g clip-path="url(#clip0)">
        <path stroke="#00151C" stroke-linecap="round" stroke-linejoin="round" stroke-width="2" d="M15.51 56.128v-28.91c0-2.42 1.96-4.38 4.38-4.38H55.8c2.42 0 4.38 1.96 4.38 4.38v28.9M29.17 56.998H11.13v3.94c0 2.42 1.96 4.38 4.38 4.38h44.67c2.42 0 4.38-1.96 4.38-4.38v-3.94H46.51"/>
        <path stroke="#9266FF" stroke-linecap="round" stroke-linejoin="round" stroke-width="2" d="M47.09 33.408h-18.5v11h18.5v-11z"/>
        <path stroke="#00151C" stroke-linecap="round" stroke-linejoin="round" stroke-width="2" d="M36.21 56.378h3.26"/>
        <path fill="#fff" stroke="#9266FF" stroke-linecap="round" stroke-linejoin="round" stroke-width="2" d="M72.32 23.378l-1.77-1.06c-.53-.32-1.4-.84-1.93-1.16l-1.77-1.06c-.53-.32-1.23-.15-1.54.39l-5.9 9.82c-.21.34-.5.83-.77 1.28-.14.24-.28.47-.39.65l-5.9 9.82c-.32.53-.54 1.47-.49 2.09l.42 5.13c.05.62.56.92 1.13.68l4.73-2.04c.57-.25 1.29-.88 1.61-1.41l5.9-9.82c.32-.53.84-1.4 1.16-1.93l1.9-3.17 3.99-6.65c.32-.55.15-1.24-.38-1.56z"/>
        <path fill="#9266FF" d="M33.495 36.422c-.07-.025-.145-.045-.225-.06-.075-.02-.147-.03-.217-.03-.165 0-.292.05-.382.15-.085.1-.128.27-.128.51v.36h.787v.869h-.787v3.328h-1.101V38.22h-.563v-.817l.563-.045v-.345c0-.22.024-.425.075-.614.054-.19.14-.353.254-.488.12-.14.273-.25.457-.33.185-.08.41-.12.675-.12.16 0 .307.016.442.046.14.03.258.065.353.104l-.203.81zm.398.93h.9l.074.742h.03c.155-.275.335-.485.54-.63.21-.145.427-.218.652-.218.115 0 .21.01.285.03.075.015.145.035.21.06l-.195.952c-.07-.025-.14-.042-.21-.052-.065-.01-.14-.015-.225-.015-.165 0-.337.062-.517.187-.18.12-.33.333-.45.637v2.504h-1.094v-4.197zm4.936 4.302c-.29 0-.562-.05-.817-.15-.255-.1-.477-.242-.667-.427-.185-.19-.332-.42-.442-.69-.105-.275-.158-.585-.158-.93 0-.34.055-.644.165-.914.11-.275.255-.507.435-.697.185-.195.395-.342.63-.442.234-.105.477-.158.727-.158.29 0 .542.05.757.15.22.1.402.24.547.42.15.18.262.392.337.637.075.245.112.512.112.802 0 .1-.005.198-.014.293-.01.09-.023.16-.038.21h-2.586c.045.344.17.607.375.786.21.175.472.263.787.263.175 0 .337-.025.487-.075.155-.05.307-.123.457-.218l.375.675c-.21.145-.44.26-.69.345-.25.08-.51.12-.779.12zm.682-2.624c0-.284-.065-.51-.195-.674-.13-.17-.33-.255-.6-.255-.224 0-.424.08-.599.24-.17.155-.275.385-.315.69h1.71zm3.523 2.624c-.29 0-.562-.05-.817-.15-.255-.1-.477-.242-.667-.427-.185-.19-.332-.42-.442-.69-.105-.275-.157-.585-.157-.93 0-.34.055-.644.164-.914.11-.275.255-.507.435-.697.185-.195.395-.342.63-.442.235-.105.477-.158.727-.158.29 0 .542.05.757.15.22.1.402.24.547.42.15.18.262.392.337.637.075.245.113.512.113.802 0 .1-.005.198-.015.293-.01.09-.023.16-.038.21h-2.586c.045.344.17.607.375.786.21.175.472.263.787.263.175 0 .338-.025.487-.075.155-.05.308-.123.458-.218l.374.675c-.21.145-.44.26-.69.345-.249.08-.509.12-.779.12zm.682-2.624c0-.284-.065-.51-.194-.674-.13-.17-.33-.255-.6-.255-.225 0-.425.08-.6.24-.17.155-.275.385-.315.69h1.71z"/>
    </g>
    <defs>
        <clipPath id="clip0">
            <path fill="#fff" d="M0 0H64.74V48.4H0z" transform="translate(9.63 18.4277)"/>
        </clipPath>
    </defs>
</svg>
