<svg xmlns="http://www.w3.org/2000/svg" width="16" height="17" fill="none" viewBox="0 0 16 17">
    <path fill="#7466FF" d="M12.85 5.596l-3.5-3.5c-.044-.048-.098-.087-.159-.113-.06-.026-.125-.038-.191-.037H4c-.265.001-.519.107-.706.294-.188.188-.293.441-.294.706v12c0 .265.106.52.294.707.187.187.441.293.706.293h8c.265 0 .519-.106.706-.293.188-.188.293-.442.294-.707v-9c.002-.065-.01-.13-.037-.191-.025-.06-.064-.115-.113-.159zM9 3.146l2.8 2.8H9v-2.8zm3 11.8H4v-12h4v3c0 .265.106.52.294.707.187.187.441.293.706.293h3v8z"/>
</svg>
