<svg xmlns="http://www.w3.org/2000/svg" width="19" height="18" fill="none" viewBox="0 0 19 18">
    <path fill="#FFE488" d="M9.144.95c.174-.401.743-.401.917 0l2.14 4.934c.072.167.23.282.41.299l5.354.51c.436.042.612.583.284.873l-4.031 3.559c-.137.12-.197.306-.158.483l1.17 5.25c.095.426-.366.761-.743.538l-4.63-2.733c-.157-.093-.352-.093-.509 0l-4.63 2.733c-.377.223-.838-.112-.743-.539l1.17-5.249c.039-.177-.021-.363-.158-.483l-4.03-3.56c-.329-.289-.153-.83.283-.872l5.353-.51c.181-.017.339-.132.411-.299L9.144.95z"/>
</svg>
