<svg xmlns="http://www.w3.org/2000/svg" width="471" height="454" fill="none" viewBox="0 0 471 454">
    <g clip-path="url(#clip0)">
        <path fill="#F1F1F1" d="M429.71 453.495v-45.43s17.799 32.208 0 45.43z"/>
        <path fill="#F1F1F1" d="M430.81 453.486l-33.646-30.722s35.89 8.739 33.646 30.722z"/>
        <path fill="#fff" d="M312.14 201.396L133.599 305.19c-.625.362-1.369.463-2.069.28-.699-.182-1.298-.633-1.663-1.254L15.053 108.823c-.364-.622-.466-1.362-.282-2.058.183-.695.637-1.291 1.26-1.654L194.574 1.317c.625-.362 1.369-.463 2.069-.28.699.182 1.298.633 1.663 1.253l114.814 195.394c.364.621.466 1.361.282 2.057-.183.696-.637 1.291-1.261 1.655z"/>
        <path fill="#3F3D56" d="M312.14 201.396L133.599 305.19c-.625.362-1.369.463-2.069.28-.699-.182-1.298-.633-1.663-1.254L15.053 108.823c-.364-.622-.466-1.362-.282-2.058.183-.695.637-1.291 1.26-1.654L194.574 1.317c.625-.362 1.369-.463 2.069-.28.699.182 1.298.633 1.663 1.253l114.814 195.394c.364.621.466 1.361.282 2.057-.183.696-.637 1.291-1.261 1.655zM16.582 106.048c-.374.218-.646.575-.756.993-.11.417-.05.861.17 1.234l114.813 195.393c.219.373.578.644.998.753.42.11.866.049 1.241-.168L311.59 200.459c.374-.218.646-.575.756-.993.11-.418.049-.862-.169-1.234L197.363 2.838c-.219-.372-.578-.643-.998-.752-.42-.11-.866-.05-1.241.168L16.583 106.048z"/>
        <path fill="#F2F2F2" d="M131.35 125.506l-44.282 25.743c-.625.363-1.37.464-2.069.281-.7-.183-1.298-.634-1.664-1.254l-25.88-44.046c-.365-.621-.467-1.361-.283-2.057.183-.696.637-1.291 1.26-1.655l44.283-25.743c.625-.362 1.369-.463 2.068-.28.7.182 1.298.633 1.664 1.254l25.881 44.045c.365.622.466 1.361.283 2.057-.184.696-.637 1.291-1.261 1.655zm-72.366-22.051c-.375.218-.647.575-.757.993-.11.418-.05.861.17 1.234l25.88 44.046c.22.372.579.643.999.753.42.109.866.048 1.24-.169l44.283-25.743c.374-.218.646-.575.757-.993.11-.417.049-.861-.17-1.234l-25.881-44.046c-.22-.372-.579-.643-.998-.752-.42-.11-.866-.05-1.241.168l-44.282 25.743z"/>
        <path fill="#6C63FF" d="M121.797 138.289l-44.282 25.743c-.563.326-1.232.417-1.862.252-.63-.164-1.168-.57-1.497-1.128L48.274 119.11c-.328-.559-.419-1.225-.254-1.852.165-.626.574-1.162 1.135-1.489l44.282-25.743c.563-.326 1.232-.417 1.862-.253.63.165 1.168.57 1.497 1.13l25.881 44.045c.328.559.42 1.225.255 1.851-.166.627-.574 1.162-1.135 1.49z"/>
        <path fill="#CCC" d="M228.679 105.07l-138.5 80.516c-.561.327-1.231.418-1.861.254-.63-.165-1.168-.571-1.497-1.13-.329-.56-.42-1.226-.255-1.852.165-.627.574-1.162 1.136-1.489L226.2 100.853c.278-.162.586-.267.905-.311.32-.043.645-.024.957.057.312.082.604.223.861.417.257.194.473.437.636.713.163.277.269.583.313.901.043.318.024.641-.058.951-.082.311-.224.602-.419.857-.195.256-.439.471-.717.632zM203.767 139.04L98.715 200.111c-.278.162-.586.268-.905.311-.32.044-.645.025-.957-.057-.63-.164-1.168-.571-1.497-1.13-.328-.559-.42-1.225-.255-1.852.165-.626.574-1.162 1.136-1.489l105.052-61.071c.279-.162.586-.268.906-.311.319-.044.644-.024.956.057.312.082.605.223.862.417.256.194.472.436.635.713.163.277.269.583.313.901.044.318.024.641-.058.951-.082.31-.224.602-.419.857-.195.255-.438.47-.717.632zM196.82 51.927l-61.241 35.602c-.562.327-1.232.418-1.862.254-.63-.165-1.168-.571-1.497-1.13-.329-.56-.42-1.226-.255-1.852.165-.627.574-1.162 1.136-1.49l61.241-35.601c.562-.327 1.232-.418 1.862-.254.312.081.604.223.861.417.257.194.473.436.636.713.162.277.269.583.313.9.043.318.024.642-.058.952-.082.31-.224.601-.419.857-.195.255-.439.47-.717.632zM190.071 75.338l-45.957 26.717c-.278.162-.586.268-.905.311-.32.044-.645.024-.957-.057-.312-.082-.604-.223-.861-.417-.257-.194-.473-.436-.636-.713-.163-.277-.269-.583-.313-.901-.043-.318-.024-.64.058-.951.082-.31.224-.602.419-.857.195-.255.439-.47.717-.632l45.957-26.717c.563-.327 1.232-.418 1.862-.254.63.164 1.169.57 1.497 1.13.329.56.421 1.225.256 1.852-.166.626-.574 1.162-1.137 1.489zM245.75 134.122l-138.5 80.516c-.562.326-1.232.418-1.861.253-.63-.164-1.169-.57-1.497-1.13-.329-.559-.421-1.225-.256-1.852.166-.626.574-1.162 1.136-1.489l138.5-80.515c.562-.327 1.231-.418 1.861-.254.63.165 1.169.571 1.497 1.13.329.559.421 1.226.256 1.852-.166.627-.574 1.162-1.136 1.489zM220.838 168.092l-105.052 61.071c-.279.162-.586.268-.906.311-.319.044-.644.024-.956-.057-.312-.081-.605-.223-.862-.417-.257-.194-.472-.436-.635-.713-.163-.277-.269-.583-.313-.901-.044-.318-.024-.641.058-.951.081-.31.224-.601.419-.857.195-.255.438-.47.717-.632l105.052-61.071c.278-.162.586-.268.905-.311.32-.044.645-.024.957.057.312.081.604.223.861.417.257.194.473.436.636.713.162.277.269.583.312.901.044.317.025.641-.057.951-.082.31-.224.601-.419.857-.195.255-.439.47-.717.632zM262.82 163.173l-138.499 80.515c-.278.162-.586.268-.906.312-.319.043-.644.024-.956-.058-.312-.081-.604-.223-.861-.417-.257-.194-.473-.436-.636-.713-.163-.277-.269-.583-.313-.901-.043-.317-.024-.64.058-.951.082-.31.224-.601.419-.857.195-.255.439-.47.717-.632l138.499-80.515c.279-.162.586-.268.906-.311.319-.044.644-.024.956.057.312.081.605.223.862.417.256.194.472.436.635.713.163.277.269.583.313.901.044.317.024.641-.058.951-.082.31-.224.601-.419.857-.195.255-.438.47-.717.632zM271.355 177.698l-138.499 80.516c-.278.162-.586.267-.905.311-.32.043-.645.024-.956-.057-.312-.082-.605-.223-.862-.417-.257-.194-.473-.437-.635-.713-.163-.277-.269-.583-.313-.901-.044-.318-.024-.641.057-.951.082-.311.225-.602.419-.857.195-.256.439-.471.717-.632l138.499-80.516c.279-.162.587-.267.906-.311.32-.043.644-.024.956.057.312.082.605.223.862.417.257.194.473.436.635.713.163.277.269.583.313.901.044.318.024.641-.057.951-.082.311-.225.602-.42.857-.195.256-.438.47-.717.632z"/>
        <path fill="#6C63FF" d="M226.568 234.245c1.924-2.254 3.656-4.663 5.178-7.204 1.365-2.291 2.704-4.741 3.004-7.428.154-1.145.034-2.309-.349-3.399-.384-1.089-1.021-2.074-1.86-2.872-.81-.743-1.837-1.21-2.932-1.334-1.094-.124-2.201.102-3.158.645-.968.553-1.769 1.356-2.316 2.325-.547.968-.821 2.066-.792 3.176.079 1.223.434 2.412 1.039 3.48.605 1.067 1.445 1.984 2.456 2.683 4.094 2.951 10.487 2.796 14.85.551 4.915-2.528 7.454-9.144 3.593-13.673-.803-.942-2.139.111-1.938 1.127.255 1.373 1.027 2.596 2.159 3.421 1.132.826 2.538 1.19 3.93 1.019 1.393-.172 2.668-.865 3.563-1.94.896-1.074 1.346-2.448 1.257-3.841l-1.735 1.009c2.128.938 4.466 1.301 6.78 1.054 2.314-.247 4.522-1.095 6.402-2.461.93-.672 1.76-1.47 2.467-2.371.849-1.102 2.277-1.815 3.432-2.609l8.328-5.724c1.225-.842.06-2.848-1.175-1.999l-7.542 5.184c-1.257.863-2.522 1.717-3.771 2.591-.893.626-1.442 1.635-2.255 2.378-1.539 1.376-3.439 2.289-5.479 2.633-2.04.343-4.137.102-6.045-.694-.177-.095-.377-.143-.579-.14-.201.004-.399.059-.573.16-.174.102-.319.246-.422.419-.102.173-.157.369-.161.57.092.831-.15 1.665-.674 2.319-.523.655-1.285 1.077-2.12 1.176-.834.098-1.675-.136-2.337-.65-.662-.515-1.094-1.27-1.199-2.099l-1.939 1.127c2.491 2.921.832 7.402-2.037 9.362-3.209 2.192-7.951 2.573-11.568 1.21-.888-.303-1.703-.786-2.394-1.417-.692-.631-1.245-1.397-1.625-2.25-.353-.771-.453-1.632-.288-2.463.166-.831.589-1.589 1.211-2.167.539-.53 1.263-.83 2.02-.838.757-.008 1.488.277 2.038.794.599.609 1.038 1.354 1.279 2.171.242.817.277 1.68.104 2.514-.373 2.32-1.663 4.46-2.862 6.441-1.37 2.258-2.919 4.404-4.633 6.417-.96 1.13.697 2.759 1.668 1.617z"/>
        <path fill="#FFB7B7" d="M247.239 289.308c.201.206.385.426.55.66l25.791-.627 3.009-5.469 8.89 3.438-4.38 10.196c-.354.823-.967 1.511-1.747 1.958-.78.448-1.685.632-2.579.525l-29.138-3.502c-.688.866-1.624 1.503-2.684 1.826-1.06.324-2.194.318-3.251-.015s-1.987-.978-2.666-1.85c-.68-.872-1.076-1.929-1.137-3.03-.06-1.101.217-2.195.797-3.135.579-.941 1.433-1.683 2.447-2.129 1.014-.447 2.14-.575 3.23-.369 1.089.206 2.089.738 2.868 1.523zM331.312 445.1h-8.48l-4.034-32.535 12.515.001-.001 32.534z"/>
        <path fill="#2F2E41" d="M333.474 453.276l-27.343-.001v-.344c0-2.807 1.122-5.499 3.118-7.485 1.995-1.985 4.702-3.1 7.525-3.1h16.701l-.001 10.93z"/>
        <path fill="#FFB7B7" d="M254.31 444.913l-7.798-3.314 9.139-31.495 11.509 4.89-12.85 29.919z"/>
        <path fill="#2F2E41" d="M253.07 453.276l-25.145-10.685.136-.316c1.109-2.582 3.203-4.62 5.823-5.666 2.619-1.045 5.549-1.013 8.144.089l.001.001 15.358 6.526-4.317 10.051z"/>
        <path fill="#FFB7B7" d="M290.093 296.357l-.614 9.884 17.926 1.908 18.755 1.996-5.521-15.008-30.546 1.22z"/>
        <path fill="#2F2E41" d="M288.915 306.368l-6.963-48.285 12.069-3.935 3.545-4.836 17.251 1.016 2.533 5.643 9.198 4.323-1.413 26.113 1.031 21.845-37.251-1.884z"/>
        <path fill="#2F2E41" d="M284.532 293.428l-12.276-4.885.052-.218c.053-.219 5.278-21.937 5.972-25.427.722-3.636 3.363-4.641 3.475-4.682l.082-.03 4.858 1.47 2.134 16.677-4.297 17.095zM260.626 439.194l-16.342-3.334 26.119-71.688 8.939-24.452s5.67-19.605 8.232-27.192l1.546-10.18 36.595 4.029s10.221 14.93 7.116 39.265l1.404 91.468-16.342.834-13.688-92.25-24.025 50.571s-7.572 21.58-12.989 26.257l-6.565 16.672z"/>
        <path fill="#FFB7B7" d="M311.039 309.772c.288-.007.576.009.861.047l17.073-19.238-1.986-5.912 8.579-4.148 4.538 10.128c.367.818.457 1.732.257 2.606-.201.873-.68 1.658-1.367 2.237l-22.393 18.873c.171 1.089.004 2.205-.478 3.198-.483.993-1.257 1.817-2.222 2.361-.964.545-2.072.784-3.177.687-1.104-.097-2.153-.526-3.006-1.231-.853-.704-1.471-1.651-1.77-2.713-.299-1.062-.267-2.189.094-3.232.361-1.043 1.032-1.952 1.925-2.607.892-.654 1.964-1.022 3.072-1.056z"/>
        <path fill="#2F2E41" d="M327.61 292.454l-7.122-16.663 2.778-11.606 2.993-3.761c.219-.093.455-.14.694-.138.238.002.473.054.691.151 1.103.442 2.043 1.796 2.793 4.025l6.675 18.91-9.502 9.082zM290.661 243.138v-12.562c0-4.464 1.783-8.746 4.957-11.903 3.173-3.156 7.478-4.93 11.966-4.93 4.489 0 8.793 1.774 11.967 4.93 3.174 3.157 4.957 7.439 4.957 11.903v12.562c-.001.6-.241 1.174-.667 1.598-.426.424-1.004.663-1.607.663h-29.3c-.603 0-1.18-.239-1.607-.663-.426-.424-.665-.998-.666-1.598z"/>
        <path fill="#FFB7B7" d="M304.107 245.107c6.852 0 12.407-5.526 12.407-12.342 0-6.816-5.555-12.341-12.407-12.341-6.853 0-12.408 5.525-12.408 12.341 0 6.816 5.555 12.342 12.408 12.342z"/>
        <path fill="#2F2E41" d="M286.657 231.581c.004-3.53 1.416-6.915 3.926-9.411 2.509-2.496 5.912-3.9 9.461-3.904h2.526c3.55.004 6.952 1.408 9.462 3.904s3.921 5.881 3.925 9.411v.252h-5.338l-1.82-5.071-.364 5.071h-2.759l-.919-2.559-.183 2.559h-17.917v-.252z"/>
        <path fill="#2F2E41" d="M302.886 246.811c-.251-.337-.401-.738-.432-1.157-.032-.418.056-.837.254-1.208 2.676-5.064 6.424-14.421 1.45-20.192l-.358-.414h14.442v21.566l-13.119 2.302c-.133.024-.268.036-.403.036-.358 0-.711-.085-1.03-.247-.319-.162-.594-.397-.804-.686z"/>
        <path fill="#9F616A" d="M134.421 437.993l7.663 2.724 14.212-28.106-11.311-4.02-10.564 29.402z"/>
        <path fill="#2F2E41" d="M129.811 444.688l3.549-9.878 15.093 5.365c2.549.909 4.631 2.787 5.79 5.222 1.158 2.434 1.299 5.226.391 7.764l-.112.311-24.711-8.784z"/>
        <path fill="#9F616A" d="M184.256 445.533l8.138-.001 3.872-31.223h-12.012l.002 31.224z"/>
        <path fill="#2F2E41" d="M182.18 442.89H198.208c1.341 0 2.669.262 3.909.773 1.239.51 2.365 1.259 3.313 2.202.949.944 1.701 2.064 2.215 3.296.513 1.233.777 2.554.777 3.888v.33l-26.242.001v-10.49z"/>
        <path fill="#F1F1F1" d="M165.708 246.053l3.539-6.956s13.186 3.286 14.385 10.887l-17.924-3.931z"/>
        <path fill="#2F2E41" d="M151.104 325.595l9.625 53.426-25.558 44.957 15.269 5.943 25.89-43.579 3.319-11.886 1.991 62.068 13.77-.416 6.313-57.956-10.126-53.878-40.493 1.321z"/>
        <path fill="#3F3D56" d="M169.375 338.224c-14.14 0-23.118-2.69-23.319-2.732l-.326-.069 7.365-33.966.332-31.33c0-13.277 8.785-23.065 10.004-23.969.205-.805.585-1.557 1.113-2.202.527-.645 1.19-1.167 1.941-1.531 2.931-1.323 6.512.264 6.662.333l10.748 4.008.051.148c.129.38 14.286 46.606 14.286 46.606s-.857 40.39-1.155 41.713c0 0-19.845 2.991-27.702 2.991z"/>
        <path fill="#9F616A" d="M180.241 236.906c8.023 0 14.526-6.469 14.526-14.449 0-7.98-6.503-14.449-14.526-14.449s-14.527 6.469-14.527 14.449c0 7.98 6.504 14.449 14.527 14.449z"/>
        <path fill="#000" d="M164.044 272.689l25.414 35.27 3.753-16.471-29.167-18.799z" opacity=".2"/>
        <path fill="#9F616A" d="M243.723 296.687c-.715.562-1.545.962-2.432 1.171-.887.208-1.809.221-2.701.037-.893-.184-1.734-.56-2.464-1.103-.73-.542-1.332-1.237-1.763-2.035l-21.875 3.482 4.739-10.435 20.046-1.707c1.397-.632 2.978-.732 4.444-.281 1.466.451 2.715 1.421 3.51 2.726.795 1.306 1.081 2.856.804 4.357-.278 1.501-1.099 2.849-2.308 3.788z"/>
        <path fill="#F1F1F1" d="M218.353 287.21l7.86-.767 2.178 10.906-9.89.174-.148-10.313z"/>
        <path fill="#3F3D56" d="M224.796 301.149l-38.494-3.409-19.437-30.747-.06-.272c-.551-2.512-.165-5.137 1.087-7.386 1.252-2.25 3.284-3.969 5.717-4.837 2.433-.868 5.1-.825 7.504.12s4.38 2.728 5.559 5.015l11.41 22.138 23.028 3.462 3.686 15.916z"/>
        <path fill="#2F2E41" d="M167.867 235.002l12.057.431c.735.026 2.73-7.864 2.991-9.5.207-1.066.796-2.02 1.658-2.685.862-.665 1.938-.995 3.027-.929.902.085 3.178-1.592 5.527-3.578 4.458-3.77 4.226-10.852-.671-14.038-.134-.087-.266-.166-.395-.238-3.089-1.721-6.704-2.298-10.245-2.342-3.209-.04-6.51.362-9.338 1.873-5.069 2.709-7.767 8.629-8.004 14.348-.237 5.719 1.606 11.311 3.698 16.644"/>
        <path fill="#CBCBCB" d="M470.118 453.946H.631c-.167 0-.328-.066-.446-.184-.118-.117-.185-.277-.185-.444 0-.166.067-.326.185-.444.118-.117.279-.184.446-.184H470.37c.167 0 .328.067.446.184.118.118.185.278.185.444 0 .347-.534.628-.882.628z"/>
    </g>
    <defs>
        <clipPath id="clip0">
            <path fill="#fff" d="M0 0H471V453H0z" transform="translate(0 0.946289)"/>
        </clipPath>
    </defs>
</svg>
