<svg xmlns="http://www.w3.org/2000/svg" width="209" height="234" fill="none" viewBox="0 0 209 234">
    <g clip-path="url(#clip0)">
        <path fill="#E6E6E6" d="M199.168 219.896c-1.303.458-2.702.572-4.062.333-1.36-.239-2.635-.824-3.703-1.699-2.719-2.28-3.573-6.036-4.266-9.514l-2.052-10.287 4.296 2.954c3.09 2.125 6.249 4.318 8.388 7.396 2.14 3.078 3.074 7.28 1.355 10.61"/>
        <path fill="#F2F2F2" d="M198.8 232.35c.435-3.163.883-6.367.578-9.565-.271-2.84-1.139-5.613-2.905-7.888-.937-1.204-2.078-2.237-3.37-3.05-.338-.212-.648.321-.312.532 2.236 1.412 3.966 3.497 4.94 5.954 1.076 2.732 1.248 5.71 1.061 8.613-.112 1.755-.349 3.498-.589 5.24-.019.079-.007.162.033.233.04.07.105.123.183.147.079.021.163.01.234-.03.072-.04.124-.107.146-.186h.001z"/>
        <path fill="#fff" d="M183.23 179.804H3.485V.279H183.23v179.525z"/>
        <path fill="#E5E5E5" d="M183.23 179.804H3.485V.279H183.23v179.525zM6.141 177.152h174.433V2.932H6.141v174.22z"/>
        <path fill="#E5E5E5" d="M151.387 28.366H73.55v2.422h77.837v-2.422zM151.387 34.662H73.55v2.422h77.837v-2.422zM151.387 40.959H73.55v2.422h77.837v-2.422zM151.387 82.432H73.55v2.421h77.837v-2.421zM151.387 88.728H73.55v2.422h77.837v-2.422zM151.387 95.025H73.55v2.422h77.837v-2.422zM151.387 136.498H73.55v2.422h77.837v-2.422zM151.387 142.795H73.55v2.422h77.837v-2.422zM151.387 149.091H73.55v2.422h77.837v-2.422z"/>
        <path fill="#3F3D56" d="M42.39 47.66c-1.33-.7-2.717-1.282-4.148-1.743l-.182-2.015-7.399-.797-.94 2.577-2.655.995c-.095.036-.185.083-.27.14h-.002c-.148.1-.274.23-.371.38-.096.15-.161.318-.19.494-.029.176-.022.355.02.527l.14.575c.202.12.41.236.617.345l.132.067c.303.157.612.306.929.443.064.028.135.056.2.084l.013.006c.15.062.298.12.45.176.497.19 1.005.353 1.52.488 1.316.35 2.672.528 4.034.527.497 0 .988-.022 1.473-.07 1.11-.102 2.205-.323 3.267-.659l.008-.002c.672-.214 1.327-.473 1.962-.777.003-.003.009-.003.012-.005.143-.068.28-.14.42-.21l.068-.034c.112-.06.225-.118.337-.18.28-.154.556-.316.828-.49.076-.045.149-.093.224-.143.107-.07.214-.143.317-.219-.26-.168-.533-.328-.813-.48z"/>
        <path fill="#3F3D56" d="M28.506 48.903l-.463-2.088h-1.21c-.012 0-.024 0-.036.002h-.003c-.435.037-.853.181-1.218.42-.247.158-.467.355-.651.584.359.272.732.524 1.117.765l.017.008c.11.068.221.135.334.2.202.12.41.235.617.344l.132.068c.303.157.612.305.93.442l.198.085c.006.002.009.002.014.005.15.062.298.12.45.177l-.228-1.012z"/>
        <path fill="#FFB8B8" d="M34.07 41.831c2.943 0 5.328-2.383 5.328-5.322s-2.385-5.322-5.328-5.322c-2.943 0-5.328 2.383-5.328 5.322 0 2.94 2.385 5.322 5.328 5.322z"/>
        <path fill="#2F2E41" d="M30.493 33.918c.552.652 1.485.836 2.346.911 2.013.111 4.032-.053 6-.49.123 1.181-.21 2.455.486 3.426.327-1.176.517-2.385.566-3.605.052-.523-.016-1.05-.2-1.544-.098-.246-.263-.461-.477-.619-.215-.157-.469-.252-.734-.272.397-.301.862-.5 1.354-.579l-1.692-.849.435-.445-3.063-.187.887-.563c-1.335-.183-2.686-.226-4.03-.127-.629 0-1.245.171-1.783.494-.506.362-.798 1.08-.484 1.61-.393.064-.763.228-1.075.475-.312.248-.556.57-.708.938-.193.584-.239 1.207-.135 1.813.115.973.341 1.93.674 2.852l1.633-3.24z"/>
        <path fill="#3F3D56" d="M49.054 30.74c-.748-2.144-1.955-4.1-3.538-5.732-1.582-1.631-3.502-2.898-5.624-3.712-2.123-.815-4.399-1.156-6.668-1.002-2.268.154-4.476.801-6.469 1.895-1.993 1.094-3.723 2.61-5.069 4.44-1.346 1.83-2.277 3.932-2.726 6.159-.45 2.226-.407 4.524.123 6.733.531 2.208 1.538 4.274 2.951 6.054.14.177.286.353.435.524l.03.034c.367.421.756.822 1.166 1.2.106.098.219.199.33.294.214.19.433.373.66.547.09.07.177.14.27.207.36.272.732.525 1.117.766l.017.008c.11.067.221.134.334.199.202.12.41.236.617.345l.132.067c.303.157.612.306.93.443l.198.084.014.006c.15.061.298.12.45.176.497.19 1.005.353 1.52.488 1.316.35 2.672.527 4.034.527.497 0 .988-.022 1.473-.07 1.11-.102 2.205-.323 3.267-.659l.009-.003c.67-.213 1.326-.473 1.962-.776.002-.003.008-.003.01-.006.144-.067.282-.14.422-.21l.067-.034c.112-.058.225-.117.337-.179.28-.154.556-.317.828-.49.076-.045.149-.093.225-.144.106-.07.213-.142.317-.218.137-.096.275-.194.41-.294.041-.031.086-.062.128-.096 2.63-1.993 4.56-4.767 5.514-7.923.954-3.157.883-6.534-.203-9.647zm-5.827 16.89c-.093.073-.188.143-.283.207-.093.07-.186.138-.281.2-.081.058-.163.114-.247.168l-.025.017c-.062.042-.124.08-.186.12-.233.146-.468.286-.707.42l-.076.043c-.106.058-.213.114-.32.17-.014.009-.03.015-.044.023l-.017.008c-.135.07-.273.138-.41.202-.53.256-1.077.477-1.636.662-.073.025-.146.05-.22.073-1.005.32-2.042.53-3.092.628-.46.042-.926.064-1.395.064-1.288.003-2.57-.165-3.814-.499-.639-.166-1.264-.378-1.872-.633-.031-.014-.065-.026-.096-.04-.034-.014-.064-.025-.095-.039-.034-.014-.065-.028-.099-.045-.263-.115-.524-.24-.78-.373l-.123-.064c-.312-.163-.618-.336-.915-.522-.087-.053-.177-.109-.261-.168l-.065-.042c-.2-.132-.398-.269-.592-.412-.132-.098-.264-.196-.393-.297-.216-.162-.424-.336-.626-.516-.106-.09-.21-.188-.311-.28-.398-.367-.775-.756-1.129-1.166-.117-.135-.233-.27-.342-.41-.025-.027-.048-.056-.07-.086-1.824-2.299-2.92-5.087-3.15-8.01-.231-2.924.416-5.85 1.857-8.405 1.441-2.555 3.612-4.623 6.235-5.94 2.623-1.319 5.58-1.826 8.492-1.459 2.913.367 5.65 1.593 7.863 3.52 2.213 1.928 3.801 4.47 4.561 7.302.76 2.833.66 5.827-.291 8.602-.95 2.774-2.707 5.203-5.045 6.977z"/>
        <path fill="#fff" d="M49.054 84.807c-.748-2.145-1.955-4.102-3.538-5.733-1.582-1.631-3.502-2.898-5.624-3.712-2.123-.814-4.399-1.156-6.668-1.002-2.268.155-4.476.802-6.469 1.896-1.993 1.094-3.723 2.609-5.069 4.44-1.346 1.83-2.277 3.932-2.726 6.158-.45 2.227-.408 4.524.123 6.733.531 2.208 1.538 4.275 2.95 6.055.141.176.287.353.436.524l.03.033c.367.421.756.822 1.166 1.2.106.098.219.199.33.295.214.19.433.372.66.546.444.35.907.674 1.387.973l.017.008c.311.194.628.373.951.544l.132.067c.303.157.612.306.929.443.064.028.135.056.2.084l.013.006c.641.266 1.3.488 1.97.664 1.316.351 2.672.528 4.034.527.497 0 .988-.022 1.473-.07 1.11-.102 2.205-.323 3.267-.658.003 0 .006-.003.008-.003.672-.214 1.327-.473 1.962-.777.003-.002.009-.002.012-.005.143-.068.28-.14.42-.211l.068-.033c.112-.059.225-.118.337-.18.28-.154.556-.316.828-.49.076-.045.149-.093.224-.143.247-.163.492-.337.727-.513.042-.031.087-.062.13-.095 2.629-1.994 4.559-4.768 5.513-7.924.954-3.156.883-6.533-.203-9.647z"/>
        <path fill="#2F2E41" d="M39.447 96.377c1.294 0 2.344-1.048 2.344-2.34 0-1.293-1.05-2.34-2.344-2.34-1.294 0-2.343 1.047-2.343 2.34 0 1.292 1.05 2.34 2.343 2.34z"/>
        <path fill="#2F2E41" d="M40.1 91.76c.406 0 .805.105 1.157.305.353.2.648.488.856.836.208.348.321.744.33 1.149.01.405-.087.805-.28 1.162.203-.254.351-.548.435-.862.083-.314.1-.642.05-.963-.051-.32-.168-.628-.344-.901-.176-.274-.407-.507-.679-.687-.271-.179-.577-.3-.898-.355-.32-.054-.649-.042-.964.038-.316.079-.612.223-.868.422-.257.2-.47.45-.624.736.22-.274.497-.496.814-.648.317-.153.664-.232 1.016-.232z"/>
        <path fill="#2F2E41" d="M35.069 94.032c3.801 0 6.883-3.078 6.883-6.876 0-3.797-3.082-6.875-6.883-6.875-3.802 0-6.884 3.078-6.884 6.875s3.082 6.876 6.884 6.876z"/>
        <path fill="#2F2E41" d="M29.666 82.89c1.186-1.332 2.844-2.152 4.624-2.286 1.78-.135 3.542.427 4.916 1.565l-.17-.159c-1.36-1.217-3.148-1.844-4.971-1.744-1.823.1-3.532.92-4.75 2.278s-1.846 3.144-1.746 4.964c.1 1.82.92 3.527 2.28 4.744l.04.035c.058.052.118.1.178.15-1.294-1.228-2.058-2.911-2.133-4.692-.075-1.782.546-3.522 1.732-4.855z"/>
        <path fill="#A0616A" d="M35.01 93.973c2.449 0 4.433-1.982 4.433-4.428 0-2.445-1.984-4.428-4.433-4.428-2.448 0-4.433 1.983-4.433 4.428 0 2.446 1.985 4.428 4.433 4.428z"/>
        <path fill="#6C63FF" d="M42.943 101.082v1.486c-.272.174-.547.336-.828.49-.112.062-.224.121-.336.18l-.068.034c-.14.07-.278.142-.42.21-.003.003-.01.003-.012.005-.635.304-1.29.563-1.962.777-.003 0-.005.003-.008.003-1.063.335-2.158.556-3.267.658-.486.048-.977.071-1.474.071-1.361 0-2.717-.177-4.033-.527-.671-.177-1.33-.399-1.97-.665l-.014-.005-.2-.085c-.317-.137-.625-.285-.928-.442l-.132-.068c-.323-.171-.64-.35-.952-.544l-.017-.008c-.48-.299-.942-.623-1.386-.973-.227-.173-.446-.356-.66-.546-.112-.096-.224-.197-.33-.295-.41-.378-.8-.778-1.166-1.2.049-.291.12-.58.214-.86l.002-.003c.017-.048.037-.095.06-.14.015-.04.033-.08.053-.118.502-.939 1.411-1.171 2.54-1.222.637-.028 1.341.003 2.085-.006.393-.002.8-.016 1.207-.053 2.568-.233 2.102-1.746 2.217-2.562.115-.79.828-.107.876-.062l.003.003c1.453.68 3.06.96 4.659.816.275-.034.55-.053.825-.062.724-.008.567.2.317.37-.121.08-.248.151-.379.213 0 0-.115.701-.233 1.75-.112 1.003 1.813 1.474 1.973 1.51.004.003.008.004.012.003.703-.182 1.443-.162 2.135.056h.003c.396.146.749.387 1.027.704.279.316.474.697.567 1.107z"/>
        <path fill="#2F2E41" d="M28.593 102.884c0 .208-.006.407-.014.595-.003.112-.008.221-.014.325l-.014-.006-.2-.084c-.316-.137-.625-.286-.928-.443l-.132-.067c-.323-.171-.64-.35-.952-.544.009-.098.023-.196.037-.294.03-.216.056-.435.073-.65.11-1.517-.165-3.037-.8-4.418v-.003c-.056-.112-.09-.174-.09-.174s.817-.7 1.982 0c.074.044.14.1.193.168.702.827.893 3.608.859 5.595zM41.338 102.503c-.011.314-.028.642-.048.976v.002c-.003.003-.008.003-.011.006-.636.303-1.291.563-1.962.776-.003 0-.006.003-.008.003l-.031-.787-.003-.104-.149-3.835c-.004-.087.01-.174.04-.255.03-.081.078-.156.138-.219.06-.062.132-.112.212-.147.08-.034.166-.052.253-.052h1.423c.07 0 .12.143.154.401v.003c.07 1.076.066 2.156-.008 3.232zM31.218 84.01v4.429h1.027l1.306-1.398-.174 1.398h4.538l-.28-1.398.56 1.398h.724v-4.43h-7.7z"/>
        <path fill="#A0616A" d="M30.518 89.253c.194 0 .35-.287.35-.64 0-.354-.156-.641-.35-.641-.193 0-.35.287-.35.64 0 .354.157.641.35.641zM39.502 89.253c.193 0 .35-.287.35-.64 0-.354-.157-.641-.35-.641-.193 0-.35.287-.35.64 0 .354.157.641.35.641z"/>
        <path fill="#6C63FF" d="M43.895 101.912c-.236.176-.48.35-.727.513-.076.05-.149.098-.224.143-.273.173-.548.336-.829.49-.112.062-.224.121-.336.18v-3.09s.449.359 1.164.956l.281.239c.208.173.432.364.67.569z"/>
        <path fill="#3F3D56" d="M49.054 84.807c-.748-2.145-1.955-4.102-3.538-5.733-1.582-1.631-3.502-2.898-5.624-3.712-2.123-.814-4.399-1.156-6.668-1.002-2.268.155-4.476.802-6.469 1.896-1.993 1.094-3.723 2.609-5.069 4.44-1.346 1.83-2.277 3.932-2.726 6.158-.45 2.227-.408 4.524.123 6.733.531 2.208 1.538 4.275 2.95 6.055.141.176.287.353.436.524l.03.033c.367.421.756.822 1.166 1.2.106.098.219.199.33.295.214.19.433.372.66.546.444.35.907.674 1.387.973l.017.008c.311.194.628.373.951.544l.132.067c.303.157.612.306.929.443.064.028.135.056.2.084l.013.006c.641.266 1.3.488 1.97.664 1.316.351 2.672.528 4.034.527.497 0 .988-.022 1.473-.07 1.11-.102 2.205-.323 3.267-.658.003 0 .006-.003.008-.003.672-.214 1.327-.473 1.962-.777.003-.002.009-.002.012-.005.143-.068.28-.14.42-.211l.068-.033c.112-.059.225-.118.337-.18.28-.154.556-.316.828-.49.076-.045.149-.093.224-.143.247-.163.492-.337.727-.513.042-.031.087-.062.13-.095 2.629-1.994 4.559-4.768 5.513-7.924.954-3.156.883-6.533-.203-9.647zm-5.827 16.889c-.093.073-.188.143-.283.208-.093.07-.186.137-.281.199-.082.059-.163.115-.247.168-.07.048-.14.093-.21.137-.234.146-.47.286-.708.421l-.076.042c-.106.059-.213.115-.32.171-.014.008-.03.014-.045.022l-.017.009c-.134.07-.272.137-.41.202-.53.255-1.077.476-1.636.661-.072.025-.145.051-.218.073-1.006.319-2.043.53-3.093.628-.46.042-.927.064-1.395.064-1.288.003-2.57-.165-3.814-.499-.639-.166-1.264-.378-1.872-.633-.065-.025-.13-.053-.191-.079-.034-.014-.065-.028-.099-.044-.264-.115-.524-.241-.78-.373l-.123-.065c-.312-.162-.618-.336-.915-.521-.11-.067-.22-.137-.326-.21-.337-.222-.665-.46-.985-.71-.216-.162-.424-.336-.626-.515-.107-.09-.21-.188-.311-.281-.398-.367-.775-.756-1.129-1.166-.118-.134-.233-.269-.342-.41-.025-.027-.048-.056-.07-.086-1.824-2.298-2.92-5.087-3.151-8.01-.23-2.924.417-5.85 1.858-8.405 1.441-2.554 3.612-4.623 6.235-5.94 2.623-1.318 5.579-1.826 8.492-1.459 2.913.368 5.65 1.593 7.863 3.52 2.213 1.928 3.8 4.47 4.561 7.303.76 2.832.66 5.827-.291 8.601-.95 2.775-2.707 5.204-5.045 6.977z"/>
        <path fill="#2F2E41" d="M34.376 151.024c3.383 0 6.126-2.739 6.126-6.118 0-3.38-2.743-6.119-6.126-6.119-3.383 0-6.126 2.739-6.126 6.119 0 3.379 2.743 6.118 6.126 6.118z"/>
        <path fill="#2F2E41" d="M29.594 141.607c.99-.989 1.19-2.391.448-3.133-.742-.741-2.146-.541-3.136.448-.99.988-1.19 2.391-.448 3.133.742.741 2.146.541 3.136-.448zM40.761 139.664c.412-.965-.297-2.192-1.584-2.741-1.288-.549-2.666-.213-3.078.752-.413.964.297 2.191 1.584 2.74 1.288.55 2.666.213 3.078-.751z"/>
        <path fill="#CACACA" d="M41.704 156.775l-.722-1.135c-.306-.683-.871-1.217-1.57-1.485-.7-.269-1.478-.249-2.164.055-.685.303-1.222.865-1.493 1.563-.27.698-.254 1.475.047 2.161l.206.735.233.834c.946-.12 1.879-.323 2.788-.608l.007-.004c.672-.212 1.329-.472 1.964-.777.003-.004.007-.004.01-.007.142-.067.28-.138.422-.209.023-.01.045-.022.067-.035.113-.057.226-.117.336-.177.113-.06.223-.123.329-.191l-.46-.72z"/>
        <path fill="#FFB6B6" d="M34.57 151.559c2.871 0 5.2-2.325 5.2-5.192 0-2.868-2.329-5.193-5.2-5.193s-5.199 2.325-5.199 5.193c0 2.867 2.328 5.192 5.2 5.192z"/>
        <path fill="#CACACA" d="M42.079 156.552c-.574-.953-1.286-1.815-2.113-2.559-.566-.505-1.3-.784-2.059-.784h-7.323c-.422 0-.84.086-1.227.253-.388.168-.736.413-1.025.72-.29.307-.512.671-.655 1.067-.142.397-.202.819-.175 1.239.016.238.059.472.127.7.053.165.118.326.195.481l.36.72c.03.011.057.025.086.036.007.003.01.003.014.007.148.06.297.12.45.176.497.191 1.005.353 1.52.488.83.223 1.678.375 2.534.456.499.046.998.071 1.5.071.499 0 .987-.025 1.475-.071.16-.014.319-.032.478-.049.945-.12 1.879-.323 2.788-.608l.007-.004c.672-.212 1.328-.472 1.964-.777.003-.004.007-.004.01-.007.142-.067.28-.138.421-.209.023-.01.046-.022.067-.035.114-.057.227-.117.337-.177.113-.06.222-.123.328-.191.114-.06.22-.127.33-.194-.135-.265-.273-.512-.414-.749z"/>
        <path fill="#CACACA" d="M31.91 154.156c-.678-.317-1.453-.352-2.157-.099-.705.252-1.28.774-1.6 1.449l-.651.982-.312.47-.474.714.294.159.13.067c.305.156.613.304.931.442.036.018.075.032.114.049l.084.036c.008.003.011.003.015.007.148.06.297.12.449.176.498.191 1.006.353 1.521.488.83.223 1.678.375 2.533.456l.248-.838.24-.798c.318-.68.352-1.457.096-2.162-.256-.705-.781-1.28-1.461-1.598z"/>
        <path fill="#2F2E41" d="M29.107 143.101c1.189.818 2.599 1.253 4.041 1.247-.514.357-1.1.598-1.717.706 1.918.411 3.901.422 5.824.033.427-.069.84-.21 1.22-.419.188-.105.353-.249.483-.422s.221-.372.269-.583c.128-.729-.441-1.391-1.032-1.838-.905-.673-1.949-1.136-3.055-1.357-1.107-.221-2.249-.194-3.343.08-.73.147-1.393.522-1.895 1.07-.243.279-.39.629-.418.997-.029.369.062.737.259 1.05l-.636-.564z"/>
        <path fill="#3F3D56" d="M49.056 138.872c-.748-2.145-1.955-4.102-3.537-5.733-1.582-1.632-3.502-2.899-5.625-3.713-2.123-.815-4.399-1.157-6.668-1.002-2.269.154-4.477.801-6.47 1.895-1.993 1.094-3.723 2.61-5.07 4.44-1.346 1.831-2.276 3.933-2.725 6.159-.45 2.227-.407 4.525.124 6.734.53 2.208 1.538 4.275 2.95 6.055.139.176.287.353.436.523l.028.035c.367.421.757.821 1.168 1.198.106.099.216.201.329.297.212.191.431.371.661.544.089.071.177.141.27.208.357.272.732.523 1.114.767.006 0 .013.003.017.007.11.067.224.135.337.198.106.064.215.127.322.187l.293.159.131.068c.305.155.612.303.93.441.036.018.075.032.114.05.028.01.057.025.085.035l.014.007c.148.06.297.12.45.177.497.19 1.005.353 1.52.488.83.222 1.678.375 2.534.455.499.046.998.071 1.5.071.499 0 .987-.025 1.475-.071.16-.014.319-.031.478-.049.946-.119 1.879-.323 2.788-.608.003 0 .005-.001.007-.003.672-.213 1.328-.473 1.964-.778.003-.003.007-.003.01-.007.142-.067.28-.138.421-.208.023-.011.046-.023.067-.036.114-.056.227-.116.337-.176.113-.061.222-.124.328-.191.114-.06.22-.127.33-.195l.17-.106c.077-.046.148-.091.226-.145.106-.067.212-.141.315-.215.138-.095.276-.194.41-.297.046-.029.09-.061.131-.095 2.628-1.995 4.556-4.769 5.51-7.924.954-3.156.884-6.532-.2-9.646zm-5.827 16.888c-.093.074-.188.145-.283.208-.096.071-.188.138-.283.202-.082.056-.163.113-.248.166l-.025.017c-.06.043-.124.082-.184.121-.042.024-.085.053-.127.077-.124.078-.248.152-.375.223-.068.042-.138.081-.206.12l-.074.042c-.11.061-.216.114-.322.17-.014.011-.032.014-.042.025-.007 0-.013.002-.018.007-.134.071-.272.138-.41.201-.532.256-1.079.476-1.639.661-.07.025-.144.053-.215.074-.903.286-1.83.485-2.77.594-.107.014-.216.025-.326.035-.46.043-.923.064-1.394.064-.418 0-.839-.018-1.252-.053-.866-.072-1.723-.221-2.562-.445-.639-.167-1.264-.379-1.872-.636-.032-.015-.063-.025-.095-.039l-.096-.039c-.035-.014-.063-.028-.099-.046-.23-.099-.46-.209-.683-.322-.032-.017-.063-.031-.095-.049l-.124-.064-.22-.116c-.236-.128-.47-.265-.696-.407-.085-.053-.177-.109-.262-.166l-.064-.042c-.198-.135-.396-.269-.59-.414-.132-.099-.266-.194-.393-.297-.216-.162-.425-.335-.627-.515-.106-.089-.212-.188-.31-.28-.4-.366-.776-.756-1.13-1.166-.116-.134-.233-.268-.343-.41-.024-.028-.046-.056-.07-.088-1.824-2.298-2.922-5.088-3.152-8.011-.23-2.924.416-5.85 1.857-8.406 1.442-2.555 3.612-4.624 6.235-5.942 2.624-1.318 5.58-1.826 8.494-1.458 2.913.367 5.651 1.592 7.864 3.52 2.214 1.928 3.802 4.47 4.562 7.303.761 2.833.66 5.827-.29 8.602-.951 2.775-2.708 5.205-5.046 6.979z"/>
        <path fill="#3F3D56" d="M60.446 62.575C55 57.986 48.339 55.077 41.27 54.202c-7.07-.876-14.242.32-20.643 3.441S8.87 65.677 5.213 71.783C1.556 77.887-.246 84.922.028 92.032c.273 7.11 2.61 13.987 6.724 19.794 4.115 5.808 9.832 10.296 16.454 12.917 6.622 2.622 13.865 3.265 20.846 1.851 6.982-1.415 13.4-4.825 18.477-9.817l45.075 37.987c.686.577 1.573.857 2.466.781.893-.076 1.72-.502 2.298-1.186.579-.684.863-1.569.789-2.461-.073-.892-.498-1.719-1.181-2.299l-.005-.004-45.075-37.988c5.237-7.506 7.478-16.694 6.284-25.764-1.193-9.07-5.735-17.37-12.734-23.27zM57.54 107.95c-3.512 4.157-8.178 7.18-13.41 8.688-5.232 1.507-10.794 1.431-15.982-.218-5.189-1.65-9.771-4.799-13.168-9.05-3.396-4.251-5.455-9.412-5.914-14.831-.46-5.42.7-10.853 3.332-15.614 2.632-4.76 6.618-8.635 11.455-11.133 4.837-2.498 10.307-3.507 15.718-2.9 5.411.607 10.52 2.803 14.682 6.31 5.58 4.703 9.062 11.427 9.678 18.694.617 7.267-1.682 14.481-6.391 20.054z"/>
        <path fill="#000" d="M18.744 111.233c-5.281-4.451-8.694-10.724-9.559-17.572-.865-6.848.88-13.77 4.888-19.393-.527.53-1.036 1.084-1.527 1.663-2.332 2.76-4.096 5.951-5.193 9.392-1.096 3.441-1.504 7.064-1.199 10.662.306 3.598 1.317 7.101 2.978 10.309 1.66 3.207 3.938 6.057 6.7 8.386 2.764 2.328 5.96 4.091 9.404 5.186 3.445 1.095 7.073 1.502 10.675 1.197 3.603-.304 7.11-1.315 10.322-2.974 3.211-1.658 6.064-3.932 8.396-6.692.49-.58.951-1.175 1.385-1.783-4.876 4.892-11.414 7.775-18.319 8.075-6.904.3-13.669-2.005-18.95-6.456z" opacity=".3"/>
        <path fill="#FFB6B6" d="M151.316 156.186c.352-.43.606-.931.743-1.469.137-.537.155-1.099.051-1.644-.103-.545-.325-1.061-.65-1.512-.325-.45-.744-.824-1.229-1.094l-8.216-33.588-5.994 1.911 8.872 33.358c-.402.844-.479 1.806-.218 2.703.261.898.842 1.668 1.634 2.166.792.497 1.739.688 2.662.534.923-.153 1.757-.639 2.345-1.365z"/>
        <path fill="#3F3D56" d="M147.07 134.702l-4.38 3.774-6.128 5.276-2.707-13.831-.283-1.438-.223-1.141 6.209-10.803 5.177.297.353.021.007.078.082.724 1.061 9.534.025.23.807 7.279z"/>
        <path fill="#FFB6B6" d="M118.44 228.584l-4.337-.001-2.064-16.71h6.402l-.001 16.711z"/>
        <path fill="#2F2E41" d="M119.547 232.783h-13.986v-.177c0-1.442.573-2.825 1.594-3.845 1.021-1.019 2.406-1.592 3.849-1.592h8.543v5.614z"/>
        <path fill="#FFB6B6" d="M163.727 228.937h-4.338l-2.063-16.71h6.402l-.001 16.71z"/>
        <path fill="#2F2E41" d="M164.833 233.137l-13.986-.001v-.176c0-1.442.574-2.825 1.595-3.845s2.405-1.592 3.849-1.593l8.543.001-.001 5.614zM167.194 222.285l-11.675 1.767-16.986-57.416-18.041 57.769-13.091-1.767 16.983-67.141v-5.3l2.3-7.951-.241-2.152-1.673-15.05-.726-6.527-.047-.422c-.039-.353.055-.709.263-.998.209-.288.518-.489.867-.562l5.448-1.145h8.906l5.254 1.445.361.099.162.046-.081.678-1.231 10.312-.067.565-1.189 9.94-.262 2.181c10.26 7.421 10.614 14.841 10.614 14.841l14.152 66.788z"/>
        <path fill="#FFB6B6" d="M133.952 110.919c4.799 0 8.69-3.886 8.69-8.679 0-4.794-3.891-8.68-8.69-8.68-4.799 0-8.69 3.886-8.69 8.68 0 4.793 3.891 8.679 8.69 8.679z"/>
        <path fill="#3F3D56" d="M143.079 138.662l-17.19 2.245.321 2.453 17.19-2.245-.321-2.453z"/>
        <path fill="#FFB6B6" d="M102.831 141.646c.164.106.32.225.466.356l17.002-4.329 1.16-4.097 6.419.94-1.347 7.452c-.109.602-.411 1.153-.86 1.569-.448.416-1.02.676-1.629.74l-19.853 2.088c-.323.681-.847 1.247-1.5 1.623-.653.376-1.406.544-2.158.483-.751-.062-1.467-.35-2.05-.828-.583-.477-1.007-1.12-1.216-1.844-.208-.724-.191-1.494.05-2.208.24-.714.693-1.338 1.297-1.789.604-.451 1.331-.707 2.085-.735.754-.028 1.498.174 2.134.579z"/>
        <path fill="#3F3D56" d="M128.983 118.747l-3.007-2.297c-.813-.308-1.927.567-2.123 1.413l-4.246 17.316 8.846 6.36 1.238-1.943-.708-20.849z"/>
        <path fill="#000" d="M146.238 127.192c-.751.298-1.516.557-2.293.778-.247.074-.502.145-.753.212-1.656.459-3.358.733-5.074.82-.739.031-1.479.011-2.215-.061-.79-.078-1.57-.232-2.331-.459l-.078-.021c-1.582-.449-3.032-1.272-4.228-2.4-.267-.259-.517-.537-.747-.83-.66-.808-1.145-1.745-1.423-2.751-.278-1.005-.342-2.058-.19-3.09.03-.187.07-.372.12-.555.134-.497.31-.982.528-1.449.095-.219.201-.434.314-.646l3.998-1.35h7.614l5.254 1.445.354.021.007.078.163.046-.082.678 1.062 9.534z" opacity=".2"/>
        <path fill="#2F2E41" d="M127.293 95.055c-1.625-.2-3.408-.059-4.675.978-1.267 1.036-1.676 3.19-.476 4.303 1.061.986 2.722.754 4.144 1.034 1.225.274 2.322.951 3.117 1.922.794.971 1.239 2.18 1.264 3.434-.021 3.595-3.476 6.318-4.096 9.859-.424 2.417.597 4.961 2.361 6.668 1.765 1.708 4.19 2.63 6.634 2.88s4.916-.131 7.291-.759c2.385-.629 4.733-1.523 6.734-2.964 2.001-1.44 3.642-3.472 4.285-5.851.642-2.379.181-5.106-1.475-6.933-1.896-2.091-5.05-2.811-6.69-5.108-1.839-2.575-1.159-6.243-2.647-9.035-.993-1.864-2.874-3.135-4.879-3.805-2.005-.67-4.146-.802-6.26-.867-1.111-.034-2.255-.045-3.29.36-1.035.404-1.945 1.325-1.999 2.434-.053 1.109.657 1.45.657 1.45z"/>
        <path fill="#CACACA" d="M208.646 233.279H73.847c-.094 0-.184-.037-.25-.104-.067-.066-.104-.156-.104-.249 0-.094.037-.184.104-.25.066-.067.156-.104.25-.104h134.799c.094 0 .184.037.25.104.067.066.104.156.104.25 0 .093-.037.183-.104.249-.066.067-.156.104-.25.104z"/>
    </g>
    <defs>
        <clipPath id="clip0">
            <path fill="#fff" d="M0 0H209V233H0z" transform="translate(0 0.279297)"/>
        </clipPath>
    </defs>
</svg>
