<svg xmlns="http://www.w3.org/2000/svg" width="400" height="175" fill="none" viewBox="0 0 400 175">
    <g clip-path="url(#clip0)">
        <path fill="#CCC" d="M360.812 71.968H126.13c-.997 0-1.952.397-2.657 1.103-.705.707-1.1 1.665-1.1 2.664 0 1 .395 1.958 1.1 2.664.705.707 1.66 1.104 2.657 1.104h6.647v90.132c0 .999.396 1.957 1.101 2.664.704.707 1.66 1.104 2.656 1.104.997 0 1.953-.397 2.657-1.104.705-.707 1.101-1.665 1.101-2.664l.057-90.132h188.356l17.367 90.132c0 .999.396 1.957 1.1 2.664.705.707 1.661 1.104 2.657 1.104.997 0 1.952-.397 2.657-1.104.705-.707 1.1-1.665 1.1-2.664l1.094-90.132h6.132c.996 0 1.952-.397 2.657-1.104.704-.706 1.1-1.664 1.1-2.664 0-.999-.396-1.957-1.1-2.664-.705-.706-1.661-1.103-2.657-1.103z"/>
        <path fill="#F2F2F2" d="M166.809 55.18v15.954h-39.863c-1.045.037-2.086-.133-3.066-.5-.979-.368-1.876-.925-2.64-1.64-.765-.715-1.381-1.574-1.815-2.528-.433-.954-.675-1.984-.711-3.031-.037-1.048.133-2.093.499-3.074.367-.982.922-1.882 1.635-2.649.713-.766 1.57-1.384 2.521-1.819.951-.434 1.979-.677 3.023-.713.185-.007.369-.007.554 0h39.863z"/>
        <path fill="#6C63FF" d="M167.788 71.012c-.001.162-.065.318-.18.433-.115.116-.27.18-.432.18h-40.94c-2.223-.001-4.354-.888-5.925-2.464-1.571-1.576-2.453-3.714-2.453-5.943 0-2.228.882-4.366 2.453-5.942 1.571-1.577 3.702-2.463 5.925-2.465h40.94c.08 0 .16.016.234.047.075.03.142.076.199.133.057.057.103.124.133.199.031.075.047.154.047.235 0 .08-.016.16-.047.235-.03.075-.076.143-.133.2-.057.057-.124.102-.199.133-.074.03-.154.046-.234.046h-40.94c-1.897.003-3.716.76-5.056 2.106-1.34 1.347-2.093 3.171-2.093 5.073 0 1.903.753 3.727 2.093 5.073 1.34 1.346 3.159 2.104 5.056 2.107h40.94c.162 0 .317.065.432.18.115.115.179.27.18.434z"/>
        <path fill="#CCC" d="M166.809 58.862h-42.837c-.032 0-.063-.013-.086-.036-.023-.023-.037-.053-.037-.086 0-.032.012-.064.035-.087.023-.023.054-.036.086-.037h42.839c.032 0 .063.014.086.037.022.023.035.054.035.086 0 .032-.013.063-.035.086-.023.023-.054.036-.086.037zM166.809 61.807h-42.837c-.032 0-.063-.013-.086-.035-.023-.023-.037-.054-.037-.087 0-.032.012-.063.035-.087.023-.023.054-.036.086-.036h42.839c.032 0 .063.013.086.036.022.023.035.054.035.086 0 .033-.013.064-.035.087-.023.023-.054.036-.086.036zM166.809 64.752h-42.837c-.032 0-.063-.012-.086-.035-.023-.023-.037-.054-.037-.086 0-.033.012-.064.035-.087.023-.023.054-.037.086-.037h42.839c.032 0 .063.013.086.036.022.023.035.054.035.087 0 .032-.013.063-.035.086-.023.023-.054.036-.086.036zM166.809 67.699h-42.837c-.032 0-.063-.013-.086-.036-.023-.022-.037-.054-.037-.086 0-.032.012-.064.035-.087.023-.023.054-.036.086-.037h42.839c.032 0 .063.013.086.037.022.023.035.053.035.086 0 .032-.013.063-.035.086-.023.023-.054.036-.086.037z"/>
        <path fill="#F2F2F2" d="M159.294 38.371v15.955h-39.863c-2.11.073-4.162-.697-5.706-2.14-1.544-1.445-2.452-3.444-2.526-5.56-.073-2.116.695-4.174 2.135-5.722s3.434-2.46 5.544-2.533c.184-.006.369-.006.553 0h39.863z"/>
        <path fill="#3F3D56" d="M160.273 54.203c0 .163-.064.319-.179.434-.115.115-.27.18-.433.18h-40.939c-2.224 0-4.356-.886-5.929-2.463-1.572-1.576-2.455-3.715-2.455-5.944 0-2.23.883-4.368 2.455-5.945 1.573-1.576 3.705-2.462 5.929-2.462h40.939c.081 0 .16.016.235.047.074.03.141.076.198.133.057.057.102.124.133.199.031.074.046.154.046.235 0 .08-.015.16-.046.234-.031.075-.076.142-.133.2-.057.056-.124.102-.198.133-.075.03-.154.046-.235.046h-40.939c-1.899 0-3.72.757-5.063 2.103-1.343 1.346-2.097 3.173-2.097 5.077s.754 3.73 2.097 5.077c1.343 1.346 3.164 2.102 5.063 2.102h40.939c.163 0 .318.065.433.18.115.115.179.271.179.434z"/>
        <path fill="#CCC" d="M159.294 42.052h-42.836c-.033 0-.064-.012-.087-.035-.023-.023-.036-.054-.037-.087 0-.032.013-.063.035-.086.023-.024.054-.037.086-.037h42.839c.033 0 .063.013.086.036.023.023.036.054.036.086 0 .033-.013.064-.036.087-.023.023-.053.036-.086.036zM159.294 44.998h-42.836c-.033 0-.064-.012-.087-.035-.023-.023-.036-.054-.037-.086 0-.033.013-.064.035-.087.023-.023.054-.037.086-.037h42.839c.033 0 .063.013.086.036.023.023.036.054.036.087 0 .032-.013.063-.036.086-.023.023-.053.036-.086.036zM159.294 47.944h-42.836c-.033 0-.064-.013-.087-.036-.023-.022-.036-.053-.037-.086 0-.032.013-.064.035-.087.023-.023.054-.036.086-.037h42.839c.033 0 .063.014.086.037.023.023.036.054.036.086 0 .032-.013.063-.036.086-.023.023-.053.036-.086.037zM159.294 50.889h-42.836c-.033 0-.064-.013-.087-.035-.023-.023-.036-.054-.037-.087 0-.032.013-.063.035-.087.023-.023.054-.036.086-.036h42.839c.033 0 .063.013.086.036.023.023.036.054.036.086 0 .033-.013.064-.036.087-.023.023-.053.036-.086.036zM205.667 128.424v-13.911c0-.615-.244-1.205-.677-1.64-.434-.434-1.022-.679-1.635-.679h-52.601c-.614 0-1.202.245-1.635.679-.434.435-.678 1.025-.678 1.64v13.911h57.226zM205.667 133.641h-57.226v17.968h57.226v-17.968zM148.441 156.826v13.911c0 .615.244 1.205.678 1.64.433.434 1.021.679 1.635.679h52.601c.613 0 1.201-.245 1.635-.679.433-.435.677-1.025.677-1.64v-13.911h-57.226z"/>
        <path fill="#fff" d="M176.765 122.628c.958 0 1.734-.778 1.734-1.739 0-.96-.776-1.739-1.734-1.739-.957 0-1.734.779-1.734 1.739 0 .961.777 1.739 1.734 1.739zM176.765 145.813c.958 0 1.734-.779 1.734-1.739 0-.961-.776-1.739-1.734-1.739-.957 0-1.734.778-1.734 1.739 0 .96.777 1.739 1.734 1.739zM176.858 168.507c.958 0 1.734-.778 1.734-1.739 0-.96-.776-1.739-1.734-1.739s-1.734.779-1.734 1.739c0 .961.776 1.739 1.734 1.739z"/>
        <path fill="#F2F2F2" d="M199.179 96.333v15.955h-39.862c-2.109.072-4.161-.699-5.703-2.143-1.543-1.443-2.451-3.442-2.524-5.557-.074-2.115.693-4.172 2.132-5.72s3.432-2.46 5.541-2.535c.184-.007.369-.007.554 0h39.862z"/>
        <path fill="#3F3D56" d="M200.158 112.165c0 .163-.065.319-.18.434-.114.115-.27.18-.432.18h-40.94c-2.223 0-4.355-.885-5.928-2.46-1.572-1.576-2.456-3.713-2.458-5.942-.001-2.229.88-4.368 2.451-5.945 1.571-1.578 3.702-2.465 5.925-2.467h40.95c.08 0 .16.015.235.046.074.03.142.076.199.133.057.057.102.125.133.2.031.074.046.154.046.235 0 .08-.015.16-.046.235-.031.074-.076.142-.133.199-.057.057-.125.102-.199.133-.075.03-.155.046-.235.046h-40.94c-1.897.003-3.716.76-5.057 2.106-1.34 1.346-2.093 3.171-2.093 5.074 0 1.902.753 3.727 2.093 5.073 1.341 1.346 3.16 2.104 5.057 2.106h40.94c.162 0 .318.065.432.18.115.115.18.271.18.434z"/>
        <path fill="#CCC" d="M199.179 100.015h-42.837c-.032 0-.063-.013-.086-.035-.023-.023-.036-.054-.037-.087 0-.032.012-.063.035-.087.023-.023.054-.036.086-.037h42.839c.032 0 .063.014.086.037.023.023.035.054.035.086 0 .033-.012.064-.035.087-.023.023-.054.036-.086.036zM199.179 102.96h-42.837c-.032 0-.063-.012-.086-.035-.023-.023-.036-.054-.037-.086 0-.033.012-.064.035-.087.023-.023.054-.037.086-.037h42.839c.032 0 .063.013.086.036.023.023.035.054.035.087 0 .032-.012.063-.035.086-.023.023-.054.036-.086.036zM199.179 105.907h-42.837c-.032 0-.063-.013-.086-.036-.023-.023-.036-.054-.037-.086 0-.032.012-.064.035-.087.023-.023.054-.036.086-.037h42.839c.032 0 .063.014.086.037.023.022.035.054.035.086 0 .032-.012.063-.035.086-.023.023-.054.036-.086.037zM199.179 108.852h-42.837c-.032 0-.063-.013-.086-.035-.023-.023-.036-.054-.037-.087 0-.032.012-.063.035-.087.023-.023.054-.036.086-.037h42.839c.032.001.063.014.086.037.023.023.035.054.035.086 0 .033-.012.064-.035.087-.023.023-.054.036-.086.036z"/>
        <path fill="#3F3D56" d="M152.362 33.048H134.2c-.172 0-.342.04-.497.116l-4.584 2.301c-.15.065-.279.172-.37.31-.09.136-.138.297-.138.461 0 .165.048.326.138.463.091.137.22.244.37.308l4.584 2.301c.155.077.325.117.497.116h18.162c.25.015.496-.07.685-.236.188-.166.303-.4.321-.65v-4.603c-.018-.25-.133-.484-.321-.65-.189-.166-.435-.251-.685-.236z"/>
        <path fill="#6C63FF" d="M153.368 33.935v4.602c-.018.251-.133.485-.322.651-.188.166-.434.25-.684.236h-3.618v-6.376h3.618c.25-.014.496.07.684.237.189.166.304.4.322.65z"/>
        <path fill="#E6E6E6" d="M43.477 123.227c2.338.824 4.849 1.031 7.29.6 2.441-.432 4.73-1.486 6.648-3.062 4.882-4.109 6.412-10.878 7.658-17.146l3.684-18.54-7.713 5.325c-5.546 3.83-11.217 7.782-15.057 13.328-3.84 5.547-5.517 13.119-2.431 19.121"/>
        <path fill="#F2F2F2" d="M44.136 145.673c-.78-5.702-1.583-11.476-1.036-17.239.486-5.118 2.044-10.116 5.213-14.215 1.683-2.171 3.73-4.032 6.05-5.498.606-.383 1.163.579.56.96-4.014 2.544-7.12 6.301-8.867 10.729-1.931 4.924-2.241 10.292-1.908 15.523.2 3.163.627 6.306 1.057 9.444.034.142.013.292-.06.419-.071.127-.188.221-.327.265-.142.038-.293.019-.42-.054-.128-.072-.222-.193-.262-.334z"/>
        <path fill="#E6E6E6" d="M51.654 135.584c1.003 1.529 2.382 2.773 4.003 3.612 1.622.839 3.432 1.246 5.255 1.18 4.687-.223 8.594-3.503 12.111-6.617l10.403-9.21-6.885-.331c-4.951-.237-10.03-.459-14.746 1.072-4.716 1.531-9.066 5.216-9.928 10.111"/>
        <path fill="#F2F2F2" d="M41.93 148.95c3.757-6.666 8.115-14.075 15.902-16.443 2.165-.656 4.435-.891 6.688-.692.71.061.533 1.159-.176 1.097-3.777-.314-7.546.686-10.674 2.832-3.01 2.054-5.353 4.91-7.336 7.939-1.215 1.855-2.303 3.789-3.392 5.72-.347.617-1.364.171-1.012-.453z"/>
        <path fill="#F2F2F2" d="M35.91 155.968c.126-1.471.653-2.879 1.522-4.071.87-1.191 2.048-2.12 3.408-2.687v-3.854h6.446v3.976c1.292.594 2.405 1.521 3.224 2.687.819 1.165 1.315 2.528 1.438 3.949l1.515 17.668h-19.07l1.516-17.668z"/>
        <path fill="#E6E6E6" d="M255.129 71.605l-1.917-.81-1.316-9.639h-17.518l-1.426 9.6-1.715.86c-.082.042-.148.11-.187.193-.039.083-.048.177-.027.267.021.09.071.17.143.226.072.057.161.088.253.088h23.552c.094 0 .185-.032.258-.092.073-.06.123-.143.141-.235.019-.093.005-.189-.039-.272-.044-.084-.115-.15-.202-.186z"/>
        <path fill="#CCC" d="M286.259 62.439h-86.052c-.452-.001-.884-.182-1.203-.502-.319-.32-.498-.755-.498-1.207V48.562h89.454V60.73c0 .452-.179.886-.498 1.207-.319.32-.751.501-1.203.502z"/>
        <path fill="#3F3D56" d="M288.05 54.312h-89.622V2.248c0-.546.217-1.07.602-1.456.386-.387.908-.604 1.453-.605h85.512c.545.001 1.067.218 1.453.605.385.386.602.91.602 1.456v52.064z"/>
        <path fill="#fff" d="M282.698 50.533h-78.917c-.42 0-.823-.168-1.12-.466-.297-.298-.464-.702-.465-1.123V5.554c.001-.42.168-.824.465-1.122.297-.298.7-.466 1.12-.466h78.917c.42 0 .823.168 1.12.466.297.298.464.701.464 1.123v43.39c0 .42-.167.824-.464 1.122-.297.298-.7.466-1.12.466z"/>
        <path fill="#FFB6B6" d="M261.912 65.844c.509-.472 1.116-.826 1.777-1.038.66-.211 1.359-.275 2.047-.186.688.089 1.348.328 1.934.7.586.372 1.084.869 1.457 1.455l10.675-1.904 2.735 6.223-15.112 2.475c-1.023.565-2.217.733-3.356.474-1.139-.26-2.143-.929-2.823-1.88-.679-.953-.987-2.122-.864-3.287.122-1.164.667-2.243 1.53-3.032z"/>
        <path fill="#6C63FF" d="M271.795 73.789l11.128-.14 1.409-.018 22.641-.286s6.148-5.882 11.502-11.938l-.75-5.442c-.732-5.342-3.375-10.234-7.436-13.768-7.667 5.138-12.114 15.307-12.114 15.307l-14.038 3.367-1.405.337-8.722 2.09-2.215 10.491z"/>
        <path fill="#E4E4E4" d="M328.762 107.24H307.99c0 .893-22.707 1.617-22.707 1.617-.501.378-.958.812-1.361 1.294-1.212 1.449-1.875 3.282-1.871 5.174v1.293c.001 2.144.851 4.2 2.362 5.716 1.512 1.516 3.562 2.368 5.7 2.368h38.649c2.138-.001 4.188-.854 5.699-2.37 1.512-1.515 2.362-3.57 2.363-5.714v-1.293c-.003-2.144-.853-4.198-2.364-5.714-1.511-1.515-3.56-2.368-5.698-2.371z"/>
        <path fill="#E4E4E4" d="M313.656 124.382h-8.385v48.529h8.385v-48.529z"/>
        <path fill="#E4E4E4" d="M281.408 172.616c0 .909 12.705.352 28.378.352s28.379.557 28.379-.352c0-.908-12.706-8.112-28.379-8.112-15.673 0-28.378 7.204-28.378 8.112z"/>
        <path fill="#FFB6B6" d="M275.776 167.071h-6.241l-2.968-24.135h9.209v24.135z"/>
        <path fill="#2F2E41" d="M277.367 173.136h-20.121v-.256c0-2.082.825-4.08 2.294-5.552 1.469-1.473 3.461-2.301 5.538-2.301l12.289.001v8.108z"/>
        <path fill="#FFB6B6" d="M257.332 167.071h-6.24l-2.969-24.135h9.21l-.001 24.135z"/>
        <path fill="#2F2E41" d="M258.923 173.136h-20.121v-.256c0-2.082.826-4.08 2.294-5.552 1.469-1.473 3.461-2.301 5.538-2.301l12.29.001-.001 8.108z"/>
        <path fill="#FFB6B6" d="M313.23 28.12c5.992 0 10.85-4.871 10.85-10.88s-4.858-10.88-10.85-10.88-10.85 4.871-10.85 10.88 4.858 10.88 10.85 10.88z"/>
        <path fill="#2F2E41" d="M330.79 91.785s3.641 19.303-10.211 21.761c-13.851 2.458-33.846 4.186-33.846 4.186l-8.979 42.008-12.063-1.08s1.604-50.568 5.55-54.525c3.945-3.956 28.882-15.802 28.882-15.802l30.667 3.452z"/>
        <path fill="#2F2E41" d="M303.738 83.694l-6.058 6.094s-43.742 7.066-45.43 17.196c-2.547 15.295-5.557 48.556-5.557 48.556l13.152-.99 5.157-37.807 21.042-4.8 23.94-13.083-6.246-15.166zM323.671 10.746c-1.071-2.027-2.432-6.065-4.594-6.814-1.2-.4-2.441-.664-3.7-.79l-3.674 1.417 2-1.56c-.39-.023-.779-.042-1.168-.057l-2.479.956 1.268-.99c-2.311-.023-4.697.218-6.488 1.629-1.526 1.203-3.039 5.76-3.284 7.69-.261 1.848-.17 3.729.27 5.542l.628.599c.219-.505.385-1.032.492-1.572.225-1.01.658-1.961 1.27-2.793.612-.833 1.39-1.529 2.285-2.043l.034-.02c1.053-.593 2.331-.566 3.538-.522l5.736.206c1.379.05 2.865.138 3.941 1.006.684.64 1.221 1.42 1.576 2.289.534 1.082 1.579 5.162 1.579 5.162s.591-.77.874-.197c.455-1.495.731-3.04.823-4.6.09-1.568-.229-3.133-.927-4.538z"/>
        <path fill="#FFB6B6" d="M361.619 22.018c-.692.046-1.366.243-1.974.578-.608.335-1.135.8-1.544 1.361-.41.562-.691 1.206-.826 1.889-.134.682-.117 1.386.05 2.061l-8.725 6.454 2.618 6.273 12.193-9.287c1.113-.356 2.057-1.108 2.653-2.115.596-1.007.804-2.198.583-3.348-.221-1.15-.855-2.178-1.782-2.89-.926-.713-2.082-1.06-3.246-.976z"/>
        <path fill="#6C63FF" d="M360.214 35.194l-21.872 24.359s-10.46-3.358-18.549-6.998l-3.635-11.193c-.844-2.596-1.204-5.327-1.062-8.054 11.214-2.992 24.258 8.142 24.258 8.142l16.372-12.86 4.488 6.604z"/>
        <path fill="#6C63FF" d="M309.177 93.584c-3.902-1.352-7.937-2.75-12.289-3.274l-.187-.023.051-.181c4.506-15.863 3.381-26.01 1.173-41.253-.469-3.288.134-6.64 1.72-9.556 1.587-2.916 4.071-5.239 7.082-6.623l.026-.012 12.431-.792.028-.002 9.041 2.666c1.3.387 2.439 1.19 3.24 2.287.802 1.097 1.223 2.428 1.199 3.788-.098 5.013.109 10.61.329 16.535.494 13.292 1.004 27.038-1.891 35.956l-.015.047-.039.03c-2.661 2.174-5.995 3.348-9.427 3.321-4.058 0-8.199-1.434-12.472-2.914z"/>
        <path fill="#CCC" d="M399.422 174.188H.578c-.153 0-.3-.062-.409-.17-.108-.109-.169-.256-.169-.41 0-.154.06-.301.17-.41.108-.109.255-.17.408-.17h398.844c.153 0 .3.061.409.17.108.109.169.256.169.41 0 .154-.061.301-.169.41-.109.108-.256.17-.409.17z"/>
    </g>
    <defs>
        <clipPath id="clip0">
            <path fill="#fff" d="M0 0H400V174H0z" transform="translate(0 0.1875)"/>
        </clipPath>
    </defs>
</svg>
