<svg xmlns="http://www.w3.org/2000/svg" width="239" height="164" fill="none" viewBox="0 0 239 164">
    <g clip-path="url(#clip0)">
        <path fill="#F1F1F1" d="M140.662 144.813c2.302 4.059.35 17.766.35 17.766s-12.784-5.397-15.086-9.454c-.548-.965-.9-2.028-1.037-3.129-.136-1.101-.053-2.218.244-3.287s.802-2.069 1.487-2.943c.684-.874 1.535-1.605 2.503-2.152.968-.546 2.035-.896 3.139-1.031 1.104-.135 2.224-.051 3.295.246 1.072.297 2.074.802 2.95 1.485.876.684 1.608 1.533 2.155 2.499z"/>
        <path fill="#fff" d="M141.197 162.561l-.271.057c-2.616-12.394-11.75-20.799-11.842-20.882l.186-.205c.093.084 9.292 8.546 11.927 21.03z"/>
        <path fill="#F1F1F1" d="M161.579 149.434c-3.124 5.652-20.736 13.308-20.736 13.308s-2.904-18.941.218-24.59c.743-1.344 1.744-2.529 2.946-3.486 1.202-.958 2.581-1.671 4.059-2.097 1.478-.426 3.026-.558 4.555-.387 1.528.17 3.009.639 4.356 1.38 1.347.74 2.535 1.739 3.495 2.937.961 1.199 1.675 2.575 2.102 4.048.428 1.474.56 3.018.389 4.543-.171 1.525-.641 3.001-1.384 4.344z"/>
        <path fill="#fff" d="M140.998 162.947l-.264-.278c12.745-12.071 16.044-28.907 16.076-29.075l.377.071c-.032.169-3.351 17.123-16.189 29.282z"/>
        <path fill="#E6E6E6" d="M226.112 6.314H.096v106.96h226.016V6.314z"/>
        <path fill="#fff" d="M219.649 15.486H6.559v89.24h213.09v-89.24z"/>
        <path fill="#6C63FF" d="M226.015.135H0V9.71h226.015V.135z"/>
        <path fill="#fff" d="M7.135 6.904c.983 0 1.78-.794 1.78-1.775 0-.98-.797-1.775-1.78-1.775s-1.78.795-1.78 1.775c0 .98.797 1.775 1.78 1.775zM13.89 6.904c.983 0 1.78-.794 1.78-1.775 0-.98-.797-1.775-1.78-1.775s-1.78.795-1.78 1.775c0 .98.797 1.775 1.78 1.775zM20.646 6.904c.982 0 1.78-.794 1.78-1.775 0-.98-.797-1.775-1.78-1.775s-1.78.795-1.78 1.775c0 .98.797 1.775 1.78 1.775z"/>
        <path fill="#E6E6E6" d="M90.135 42.426c-.479.001-.866.656-.865 1.462 0 .803.388 1.454.865 1.456h89.232c.479-.002.867-.657.866-1.462-.001-.804-.388-1.455-.866-1.456H90.135zM90.135 51.18c-.479.001-.866.656-.865 1.461 0 .804.388 1.455.865 1.456h65.938c.479-.001.866-.656.865-1.461-.001-.804-.388-1.455-.865-1.456H90.135zM90.135 59.735c-.479.002-.866.656-.865 1.462 0 .803.388 1.454.865 1.456h89.232c.479-.002.867-.656.866-1.462-.001-.803-.388-1.454-.866-1.456H90.135zM90.135 68.49c-.479 0-.866.655-.865 1.461 0 .803.388 1.454.865 1.456h65.938c.479-.002.866-.656.865-1.462-.001-.803-.388-1.454-.865-1.456H90.135zM20.89 74.707c-.478.002-.866.656-.865 1.462 0 .803.388 1.454.866 1.456h44.045c.48-.002.867-.656.866-1.462 0-.803-.388-1.454-.866-1.456H20.891zM20.89 83.46c-.478.002-.866.656-.865 1.462 0 .803.388 1.454.866 1.456h20.751c.479-.002.866-.656.866-1.462-.001-.803-.388-1.454-.866-1.456H20.891z"/>
        <path fill="#fff" d="M59.774 37.722c-.854-2.445-2.232-4.676-4.039-6.536-1.807-1.86-3.998-3.304-6.422-4.232-2.425-.929-5.023-1.318-7.613-1.142-2.59.176-5.112.913-7.387 2.16-2.276 1.248-4.25 2.976-5.788 5.063-1.537 2.087-2.6 4.483-3.113 7.021-.513 2.539-.465 5.159.142 7.677.606 2.518 1.755 4.874 3.368 6.903.16.201.327.403.497.598.013.012.022.025.035.038.418.48.862.937 1.33 1.368.122.112.25.227.378.335.244.218.494.426.754.624.506.398 1.035.768 1.583 1.109l.019.01c.355.22.718.424 1.086.62l.15.076c.347.18.7.348 1.062.505.073.032.153.064.227.096l.016.006c.732.304 1.483.557 2.25.758 1.502.4 3.05.601 4.605.6.567 0 1.128-.025 1.682-.08 1.267-.116 2.518-.368 3.73-.75.004 0 .007-.004.01-.004.767-.243 1.515-.539 2.24-.885.004-.003.01-.003.013-.006.164-.077.32-.16.48-.24l.078-.038c.128-.067.256-.134.384-.205.32-.176.635-.361.946-.56.086-.05.17-.105.256-.162.282-.185.56-.384.83-.585.048-.035.1-.07.148-.109 3.002-2.273 5.206-5.435 6.295-9.034 1.089-3.598 1.008-7.449-.232-10.999z"/>
        <path fill="#2F2E41" d="M48.805 50.914c1.478 0 2.676-1.195 2.676-2.668 0-1.474-1.198-2.669-2.676-2.669-1.477 0-2.675 1.195-2.675 2.669 0 1.473 1.198 2.668 2.675 2.668z"/>
        <path fill="#2F2E41" d="M49.55 45.651c.464 0 .919.12 1.322.348.402.228.739.556.976.953.238.396.368.848.378 1.31.01.461-.1.917-.32 1.324.232-.29.401-.624.496-.982.095-.358.115-.732.057-1.098-.058-.366-.192-.716-.392-1.028-.201-.312-.465-.578-.775-.782-.31-.205-.659-.343-1.025-.405-.366-.062-.742-.048-1.102.042-.36.09-.698.255-.991.482-.293.227-.536.514-.712.84.25-.314.568-.566.93-.74.361-.174.758-.264 1.159-.264z"/>
        <path fill="#2F2E41" d="M43.805 48.24c4.341 0 7.86-3.51 7.86-7.839 0-4.329-3.519-7.839-7.86-7.839-4.34 0-7.86 3.51-7.86 7.84 0 4.328 3.52 7.838 7.86 7.838z"/>
        <path fill="#2F2E41" d="M37.637 35.538c1.354-1.52 3.247-2.454 5.28-2.607 2.032-.154 4.044.486 5.612 1.785-.064-.061-.128-.123-.194-.182-1.553-1.387-3.594-2.102-5.676-1.988-2.081.114-4.032 1.048-5.423 2.596-1.39 1.549-2.108 3.585-1.994 5.66.115 2.077 1.051 4.022 2.604 5.41l.045.04c.067.058.135.114.203.17-1.476-1.4-2.35-3.319-2.435-5.35-.085-2.03.624-4.015 1.978-5.534z"/>
        <path fill="#A0616A" d="M43.739 48.173c2.795 0 5.062-2.26 5.062-5.048 0-2.788-2.267-5.049-5.062-5.049-2.796 0-5.062 2.26-5.062 5.049 0 2.788 2.266 5.048 5.062 5.048z"/>
        <path fill="#CBCBCB" d="M52.797 56.279v1.693c-.31.199-.625.384-.945.56-.128.07-.256.137-.385.204l-.077.039c-.16.08-.317.163-.48.24-.003.002-.01.002-.013.006-.726.346-1.474.642-2.24.885l-.01.003c-1.213.383-2.463.635-3.73.751-.555.055-1.115.08-1.683.08-1.554 0-3.102-.201-4.605-.6-.766-.202-1.518-.455-2.25-.758l-.015-.006-.228-.096c-.362-.157-.715-.326-1.06-.505l-.151-.077c-.369-.195-.731-.4-1.087-.62l-.019-.01c-.548-.34-1.076-.71-1.583-1.109-.26-.198-.51-.406-.753-.623-.128-.109-.256-.224-.378-.336-.468-.43-.913-.888-1.33-1.367.055-.333.137-.662.243-.982l.003-.003c.02-.055.042-.108.068-.16.017-.046.038-.09.06-.134.574-1.07 1.613-1.336 2.901-1.393.727-.032 1.532.003 2.381-.007.449-.003.913-.019 1.378-.06 2.932-.266 2.4-1.992 2.532-2.922.131-.901.945-.121 1-.07l.003.003c1.66.775 3.495 1.096 5.32.93.314-.038.628-.06.942-.07.826-.01.647.227.362.422-.139.09-.283.172-.433.243 0 0-.131.799-.266 1.994-.128 1.144 2.07 1.681 2.253 1.723.004.002.008.003.013.003.803-.208 1.648-.186 2.439.064h.003c.452.166.855.441 1.173.802.318.36.54.794.647 1.263z"/>
        <path fill="#2F2E41" d="M36.411 58.334c0 .237-.006.464-.015.678-.004.128-.01.252-.016.37-.007-.002-.01-.002-.017-.006-.073-.032-.153-.064-.227-.095-.362-.157-.715-.326-1.06-.505l-.151-.077c-.369-.195-.731-.4-1.087-.62.01-.112.026-.224.042-.336.035-.246.064-.495.083-.741.126-1.73-.188-3.462-.913-5.037v-.004c-.064-.127-.103-.198-.103-.198s.933-.799 2.263 0c.085.05.16.115.221.192.801.943 1.019 4.113.98 6.38zM50.964 57.9c-.013.357-.032.731-.054 1.111v.004c-.003.003-.01.003-.013.006-.726.346-1.474.642-2.24.885-.003 0-.007.004-.01.004l-.035-.899-.003-.118-.17-4.372c-.005-.099.01-.198.046-.29.035-.093.088-.178.156-.25.069-.072.151-.129.243-.168.091-.039.19-.059.289-.06h1.624c.08 0 .138.164.177.458v.003c.079 1.227.075 2.458-.01 3.685zM39.41 36.815v5.05h1.172l1.491-1.595-.2 1.594h5.183l-.32-1.594.64 1.594h.826v-5.05H39.41z"/>
        <path fill="#A0616A" d="M38.61 42.793c.22 0 .4-.327.4-.73 0-.404-.18-.731-.4-.731-.22 0-.4.327-.4.73 0 .404.18.731.4.731zM48.868 42.793c.22 0 .4-.327.4-.73 0-.404-.18-.731-.4-.731-.22 0-.4.327-.4.73 0 .404.18.731.4.731z"/>
        <path fill="#CBCBCB" d="M59.774 37.722c-.854-2.445-2.232-4.676-4.039-6.536-1.807-1.86-3.998-3.304-6.422-4.232-2.425-.929-5.023-1.318-7.613-1.142-2.59.176-5.112.913-7.387 2.16-2.276 1.248-4.25 2.976-5.788 5.063-1.537 2.087-2.6 4.483-3.113 7.021-.513 2.539-.465 5.159.142 7.677.606 2.518 1.755 4.874 3.368 6.903.16.201.327.403.497.598.013.012.022.025.035.038.418.48.862.937 1.33 1.368.122.112.25.227.378.335.244.218.494.426.754.624.506.398 1.035.768 1.583 1.109l.019.01c.355.22.718.424 1.086.62l.15.076c.347.18.7.348 1.062.505.073.032.153.064.227.096l.016.006c.732.304 1.483.557 2.25.758 1.502.4 3.05.601 4.605.6.567 0 1.128-.025 1.682-.08 1.267-.116 2.518-.368 3.73-.75.004 0 .007-.004.01-.004.767-.243 1.515-.539 2.24-.885.004-.003.01-.003.013-.006.164-.077.32-.16.48-.24l.078-.038c.128-.067.256-.134.384-.205.32-.176.635-.361.946-.56.086-.05.17-.105.256-.162.282-.185.56-.384.83-.585.048-.035.1-.07.148-.109 3.002-2.273 5.206-5.435 6.295-9.034 1.089-3.598 1.008-7.449-.232-10.999zM53.12 56.98c-.106.083-.215.163-.324.236-.105.08-.211.157-.32.227-.093.067-.186.131-.282.192-.08.054-.16.105-.24.157-.267.166-.536.326-.808.479l-.087.048c-.122.067-.243.13-.365.195-.016.01-.035.016-.051.025l-.02.01c-.153.08-.31.157-.468.23-.605.291-1.23.543-1.868.754-.083.03-.166.058-.25.083-1.148.365-2.332.605-3.531.716-.526.048-1.058.074-1.593.074-1.47.003-2.935-.188-4.355-.569-.729-.19-1.443-.431-2.138-.722l-.218-.09c-.038-.016-.073-.032-.112-.051-.301-.131-.599-.275-.89-.425l-.142-.074c-.355-.185-.705-.383-1.044-.594-.125-.077-.25-.157-.372-.24-.385-.252-.76-.524-1.125-.808-.247-.186-.484-.384-.715-.588-.122-.103-.24-.215-.355-.32-.455-.419-.885-.862-1.289-1.33-.134-.153-.266-.306-.39-.466-.03-.032-.056-.065-.08-.1-2.083-2.62-3.335-5.8-3.598-9.132-.263-3.334.475-6.67 2.12-9.582 1.647-2.913 4.125-5.271 7.12-6.774 2.995-1.502 6.37-2.08 9.697-1.662 3.326.419 6.451 1.816 8.978 4.013 2.527 2.198 4.34 5.096 5.208 8.326.868 3.229.752 6.643-.333 9.807-1.085 3.163-3.09 5.932-5.76 7.955z"/>
        <path fill="#FFB7B7" d="M169.606 64.423c.158.115.308.242.446.38l17.226-3.388 1.384-4.024 6.363 1.289-1.756 7.361c-.142.595-.474 1.127-.945 1.518s-1.057.619-1.669.65l-19.951.996c-.361.662-.915 1.198-1.588 1.537-.674.34-1.435.466-2.183.364-.747-.102-1.446-.43-2.003-.938-.557-.508-.945-1.173-1.113-1.907-.169-.733-.109-1.5.17-2.2.28-.7.766-1.297 1.395-1.714.628-.416 1.369-.632 2.124-.619.754.014 1.487.256 2.1.695z"/>
        <path fill="#6C63FF" d="M186.859 60.618c-.113-.198-.182-.419-.202-.646-.02-.228.01-.457.087-.672l2.689-7.51c.227-1.146.901-2.155 1.874-2.806.972-.652 2.164-.892 3.313-.668 1.15.224 2.164.893 2.819 1.861.656.968.9 2.156.679 3.303l-.389 7.991c-.011.228-.072.451-.177.654s-.253.38-.434.521c-.18.14-.389.24-.611.294-.223.053-.455.057-.679.013l-7.893-1.56c-.225-.045-.437-.137-.623-.27-.186-.134-.34-.306-.453-.505z"/>
        <path fill="#FFB7B7" d="M182.539 158.026h-5.065l-2.409-19.482h7.474v19.482z"/>
        <path fill="#2F2E41" d="M183.83 162.922H167.5v-.206c0-1.681.67-3.294 1.862-4.482 1.192-1.189 2.808-1.857 4.494-1.857h9.974v6.545z"/>
        <path fill="#FFB7B7" d="M230.497 152.732l-4.69 1.905-9.598-17.138 6.923-2.811 7.365 18.044z"/>
        <path fill="#2F2E41" d="M233.545 156.782l-15.125 6.14-.078-.19c-.635-1.557-.625-3.303.03-4.852.654-1.549 1.899-2.776 3.46-3.41h.001l9.237-3.75 2.475 6.062zM187.146 77.129l-2.33-12.296c-.507-1.81-.597-3.712-.263-5.562.333-1.85 1.081-3.6 2.188-5.122l8.519-11.359 8.137.239c3.847 9.298 4.556 19.593 2.018 29.329l-1.496 5.738c6.708 6.034 11.205 22.951 15.298 41.855l11.222 24.751-19.306 5.846-12.508-36.299-11.174 36.569-16.361-.627 12.444-56.564 3.612-16.498z"/>
        <path fill="#FFB7B7" d="M200.11 40.493c4.384 0 7.938-3.544 7.938-7.916s-3.554-7.916-7.938-7.916c-4.383 0-7.937 3.544-7.937 7.916s3.554 7.916 7.937 7.916z"/>
        <path fill="#2F2E41" d="M231.441 50.558c-1.474-2.873-1.978-6.135-3.113-9.157-1.135-3.023-3.197-6.022-6.323-6.854-1.774-.473-3.658-.184-5.48-.41-1.601-.197-3.326-1.013-3.939-2.431.123-1.407-.053-2.823-.517-4.157-1.143-3.238-3.867-5.794-7.044-7.115-2.58-1.074-5.552-1.377-8.187-.445-2.635.932-4.847 3.21-5.321 5.959-.473 2.748 1.046 5.816 3.664 6.792 1.881.701 4.302.468 5.53 2.052 1.244 1.604.352 3.943-.777 5.629l.077.078c3.69.043 7.678-.668 10.22-3.336.275-.291.529-.602.759-.931.078.124.159.246.247.362 1.28 1.694 3.283 2.656 5.192 3.593 1.909.936 3.888 1.988 5.035 3.775 2.071 3.23.711 7.58 1.896 11.227.528 1.623 1.544 3.045 2.912 4.072 1.368 1.026 3.019 1.606 4.73 1.661 1.71.056 3.396-.417 4.828-1.352 1.431-.936 2.538-2.29 3.17-3.876-3.225.27-6.084-2.264-7.559-5.136z"/>
        <path fill="#6C63FF" d="M154.519 70.815l.335-8.134 11.52-22.843c.325-.649.854-1.174 1.507-1.494.4-.2.836-.317 1.282-.346.446-.029.893.031 1.316.177.489.168.933.447 1.296.814.364.367.637.814.799 1.304.07.212.119.43.146.65.082.656-.034 1.322-.334 1.911l-11.535 22.873-6.332 5.088z"/>
        <path fill="#3F3D56" d="M169.316 38.151l-12.505 24.795-.953-.478 12.094-23.981c.424-.212.89-.326 1.364-.336zM172.561 40.964l-12.028 23.85-.953-.478 12.479-24.744c.153.233.275.486.363.751.066.202.113.41.139.62zM171.364 38.835l-12.643 25.07-.953-.48 12.658-25.1c.135.046.267.101.394.165.192.097.374.212.544.345zM155.965 69.448l-1.272 1.022.106-2.695c.437.151.91.807 1.166 1.673z"/>
        <path fill="#FFB7B7" d="M169.082 43.84c.043.191.072.385.085.58l15.208 8.75 3.697-2.122 3.941 5.145-6.178 4.392c-.499.355-1.1.538-1.713.523-.613-.014-1.204-.227-1.685-.606l-15.683-12.339c-.708.261-1.479.301-2.21.115-.731-.186-1.388-.59-1.884-1.158-.495-.567-.806-1.272-.89-2.02-.084-.748.062-1.504.42-2.167.357-.663.908-1.202 1.58-1.545.671-.343 1.432-.474 2.18-.376.748.099 1.449.422 2.008.928.56.505.951 1.168 1.124 1.9z"/>
        <path fill="#6C63FF" d="M184.584 52.295c.046-.224.14-.435.275-.62.135-.184.309-.337.508-.448l6.98-3.892c.927-.714 2.1-1.032 3.262-.885 1.162.148 2.218.75 2.936 1.672.719.923 1.041 2.092.896 3.251-.145 1.16-.745 2.214-1.668 2.933l-5.565 5.763c-.158.165-.351.293-.564.377-.213.083-.442.12-.67.107-.229-.012-.452-.073-.655-.18-.202-.106-.38-.255-.52-.435l-4.915-6.354c-.14-.18-.239-.39-.291-.612-.052-.223-.055-.453-.009-.677z"/>
        <path fill="#CBCBCB" d="M237.989 163.134H115.89c-.085 0-.166-.033-.226-.093s-.094-.142-.094-.226c0-.085.034-.166.094-.226s.141-.094.226-.094h122.099c.085 0 .166.034.226.094.061.06.094.141.094.226 0 .084-.033.166-.094.226-.06.06-.141.093-.226.093z"/>
    </g>
    <defs>
        <clipPath id="clip0">
            <path fill="#fff" d="M0 0H239V163H0z" transform="translate(0 0.134766)"/>
        </clipPath>
    </defs>
</svg>
