<svg xmlns="http://www.w3.org/2000/svg" width="369" height="248" fill="none" viewBox="0 0 369 248">
    <g clip-path="url(#clip0)">
        <path fill="#2F2E41" d="M296.118 32.63l1.184-9.445c.207-1.663.742-3.268 1.573-4.725.832-1.457 1.943-2.736 3.271-3.765 1.328-1.03 2.847-1.788 4.47-2.232 1.623-.445 3.318-.567 4.988-.36 1.67.207 3.283.74 4.746 1.568 1.463.828 2.748 1.935 3.782 3.257 1.033 1.323 1.795 2.835 2.241 4.45.446 1.615.568 3.302.359 4.965l-1.184 9.444c-.057.45-.291.86-.651 1.14-.36.278-.817.404-1.27.348l-22.014-2.734c-.453-.056-.865-.29-1.145-.648-.28-.358-.406-.813-.35-1.264z"/>
        <path fill="#FFB8B8" d="M306.663 35.446c5.188 0 9.395-4.186 9.395-9.35 0-5.165-4.207-9.35-9.395-9.35-5.189 0-9.395 4.186-9.395 9.35s4.206 9.35 9.395 9.35z"/>
        <path fill="#2F2E41" d="M294.199 23.566c.336-2.654 1.715-5.067 3.836-6.71 2.121-1.642 4.81-2.38 7.477-2.052l1.898.236c2.666.334 5.091 1.707 6.741 3.818 1.65 2.11 2.392 4.787 2.062 7.442l-.023.188-4.011-.497-.89-3.983-.752 3.779-2.072-.258-.449-2.009-.379 1.906-13.462-1.671.024-.189z"/>
        <path fill="#FFB8B8" d="M260.714 59.45c.287.562.695 1.054 1.193 1.441.499.388 1.077.662 1.693.803.617.14 1.257.146 1.876.014.618-.132 1.201-.397 1.705-.777l8.533 4.975 4.302-4.424-12.149-6.857c-.697-.801-1.666-1.32-2.722-1.458-1.056-.138-2.126.114-3.008.709-.882.595-1.514 1.49-1.776 2.518-.262 1.028-.136 2.115.353 3.057z"/>
        <path fill="#3F3D56" d="M288.68 68.39c-6.294 0-17.369-2.804-17.983-2.96l-.193-.05 1.743-8.784 16.917 3.325 9.19-12.88 10.551-1.068-.294.385c-.137.18-13.739 18-15.855 20.99-.534.754-2.06 1.042-4.076 1.042z"/>
        <path fill="#3F3D56" d="M290.368 101.36l-.252-.12c-.054-.025-5.401-2.614-8.171-7.668-2.756-5.03 10.148-26.368 11.05-27.849l.014-6.776 4.642-12.474 5.92-3.33-5.083 11.804-8.12 46.413z"/>
        <path fill="#FFB8B8" d="M284.437 174.191h-5.658l-2.692-21.721h8.351l-.001 21.721z"/>
        <path fill="#2F2E41" d="M285.88 179.649h-18.244v-.23c0-1.874.749-3.672 2.08-4.997 1.332-1.326 3.138-2.07 5.021-2.07H285.88v7.297z"/>
        <path fill="#FFB8B8" d="M345.21 169.256l-5.376 1.753-9.354-19.807 7.936-2.588 6.794 20.642z"/>
        <path fill="#2F2E41" d="M348.289 173.996l-17.336 5.654-.072-.218c-.587-1.782-.438-3.722.413-5.394.851-1.672 2.334-2.94 4.124-3.523l10.589-3.453 2.282 6.934zM334.256 165.705l-16.13-26.801-13.616-28.634-12.252 25.293-4.868 32.759-17.069.236.067-.266L296.51 64.985l20.458 3.042-.931 13.441.555.785c4.621 6.535 9.4 13.29 6.659 20.574l7.769 22.961 17.198 38.232-13.962 1.685z"/>
        <path fill="#6C63FF" d="M297.445 87.375c-2.965 0-6.347-3.37-4.592-9.121l-.114-.082 4.215-18.533c-3.678-5.235 1.171-9.556 1.625-9.942l2.315-4.147 10.213-6.447 5.167 42.734-.076.073c-3.732 3.554-16.266 5.465-18.753 5.465z"/>
        <path fill="#3F3D56" d="M318.36 97.018c-.405.006-.81-.037-1.206-.127-.397-.1-1.04-.603-2.034-3.823-3.95-12.801-8.614-51.319-5.226-55.088l.078-.086 5.563.922c.463-.34 2.89-2.025 5.129-1.732.461.058.905.209 1.305.444.4.236.748.55 1.021.924l.038.05 1.773 25.097 6.493 29.534-.156.07c-.378.171-8.486 3.815-12.778 3.815z"/>
        <path fill="#FFB8B8" d="M314.619 87.209c.632-.021 1.252-.18 1.816-.465.564-.285 1.059-.69 1.448-1.186.39-.496.666-1.071.808-1.685.143-.613.148-1.25.016-1.866l8.145-5.584-2.202-5.753-11.39 8.045c-1.025.29-1.908.942-2.481 1.836-.573.893-.798 1.965-.63 3.012.167 1.047.715 1.996 1.539 2.668.824.672 1.867 1.02 2.931.978z"/>
        <path fill="#3F3D56" d="M324.164 80.897l-7.254-5.295 10.197-13.84-7.825-13.745 3.501-9.964.226.429c.105.2 10.556 20.015 12.379 23.19 1.897 3.303-10.565 18.43-11.096 19.071l-.128.154z"/>
        <path fill="#fff" d="M252.936 110.406l-133.298 4.497c-3.294.107-6.497-1.09-8.906-3.33-2.408-2.24-3.826-5.34-3.941-8.619l-2.195-64.462c-.108-3.28 1.095-6.467 3.345-8.864 2.251-2.398 5.365-3.808 8.659-3.923l133.299-4.497c3.294-.108 6.497 1.09 8.906 3.33 2.408 2.24 3.826 5.34 3.941 8.618l2.195 64.463c.108 3.279-1.095 6.467-3.346 8.864-2.25 2.397-5.364 3.808-8.659 3.923z"/>
        <path fill="#F2F2F2" d="M264.941 97.62l.012.34c.106 3.133-1.043 6.179-3.193 8.469-2.15 2.29-5.127 3.635-8.274 3.741l-133.965 4.519c-3.146.106-6.206-1.036-8.507-3.176-2.3-2.139-3.653-5.101-3.76-8.233l-.011-.341 157.698-5.32z"/>
        <path fill="#6C63FF" d="M133.347 45.776c-9.6 2.707-18.543-4.413-20.295-11.24l.67-.142c8.099-2.07 17.405 3.428 19.625 11.382z"/>
        <path fill="#3F3D56" d="M228.26 91.859c-2.163.073-3.904-.51-5.177-1.73-2.877-2.76-2.89-8.268-2.901-12.693-.003-1.287-.006-2.503-.079-3.52l-.001-.015c-.058-1.988.675-3.919 2.039-5.373 1.364-1.453 3.249-2.313 5.246-2.39l17.93-.606c2.16-.072 3.9.509 5.172 1.728 2.876 2.758 2.891 8.264 2.904 12.688.003 1.29.007 2.509.081 3.527.061 1.99-.671 3.925-2.036 5.382-1.365 1.457-3.253 2.319-5.253 2.397l-17.925.605zm-7.405-17.988c.075 1.04.078 2.266.081 3.563.01 4.284.023 9.615 2.67 12.154 1.136 1.09 2.65 1.588 4.628 1.521l17.925-.604c1.798-.07 3.496-.844 4.725-2.153 1.229-1.31 1.889-3.048 1.837-4.839-.075-1.028-.078-2.26-.082-3.563-.012-4.282-.026-9.612-2.673-12.15-1.135-1.088-2.648-1.585-4.623-1.518l-17.929.605c-1.797.07-3.493.843-4.721 2.15-1.228 1.308-1.888 3.045-1.838 4.834zM129.409 46.6c-3.144.087-6.25-.706-8.964-2.289-3.976-2.276-7.046-6.033-8.014-9.804l-.098-.378 1.046-.223c8.22-2.099 17.786 3.448 20.074 11.643l.101.36-.361.101c-1.233.349-2.503.546-3.784.59zm-16.144-11.903c1.022 3.455 3.884 6.861 7.555 8.964 3.553 2.097 7.792 2.718 11.801 1.727-2.362-7.628-11.337-12.734-19.062-10.754l-.294.063zM120.414 89.543c-1.133.08-2.267-.148-3.279-.66-1.012-.513-1.865-1.29-2.467-2.248-.699-1.143-1.089-2.445-1.135-3.781-.046-1.336.254-2.662.873-3.85.547-1.016 1.366-1.862 2.366-2.444 1.001-.582 2.143-.876 3.302-.852l23.889-.805c1.154-.1 2.313.118 3.349.632s1.91 1.302 2.525 2.279c.697 1.142 1.088 2.444 1.133 3.78.046 1.336-.256 2.662-.874 3.848-1.125 2.074-3.138 3.23-5.667 3.29l-23.89.806-.125.005zm-.432-13.082c-1.006-.006-1.996.26-2.861.771-.866.51-1.575 1.247-2.052 2.129-.557 1.07-.828 2.264-.787 3.468.042 1.203.394 2.376 1.023 3.405.546.863 1.321 1.558 2.239 2.009.918.45 1.944.64 2.963.546l23.902-.807c1.024.026 2.036-.231 2.923-.742.886-.511 1.614-1.257 2.101-2.154.557-1.07.828-2.263.787-3.467-.04-1.204-.392-2.376-1.021-3.406-.547-.862-1.322-1.557-2.24-2.01-.918-.451-1.944-.642-2.965-.551l-23.903.806-.109.003z"/>
        <path fill="#6C63FF" d="M233.819 74.843l-7.531.254c-.499.016-.984-.166-1.349-.505-.364-.34-.578-.81-.595-1.306-.017-.496.164-.98.505-1.343.341-.363.812-.577 1.311-.594l7.531-.254c.499-.017.985.164 1.35.504.365.34.58.81.597 1.306.017.497-.166.98-.507 1.344-.341.363-.813.577-1.312.594zM234.023 80.84l-7.531.254c-.248.009-.494-.031-.726-.118-.232-.086-.445-.217-.626-.385s-.327-.37-.429-.594c-.103-.225-.16-.467-.168-.713-.009-.247.032-.492.119-.723.087-.23.219-.442.388-.622s.372-.325.598-.427c.225-.102.469-.158.716-.166l7.531-.254c.248-.009.494.031.726.118.232.086.445.217.626.385s.327.37.43.594c.102.225.159.467.168.713.008.247-.033.492-.12.723-.087.23-.219.442-.388.622s-.372.325-.598.427c-.225.101-.469.158-.716.166zM234.227 86.836l-7.531.254c-.499.017-.985-.165-1.35-.504-.365-.34-.58-.81-.597-1.306-.017-.498.166-.98.507-1.344.341-.364.813-.577 1.312-.594l7.531-.254c.248-.008.494.032.726.118.231.087.444.218.624.386.181.168.327.37.429.594.102.224.159.466.168.712.008.246-.032.492-.119.722-.087.23-.219.442-.387.622-.169.18-.372.325-.597.427-.226.102-.469.158-.716.167zM246.998 74.398l-7.531.254c-.248.01-.494-.03-.726-.117-.232-.087-.445-.217-.626-.386-.181-.168-.327-.37-.43-.594-.102-.224-.159-.467-.168-.713-.008-.246.033-.492.12-.722.087-.231.219-.443.388-.623s.372-.325.598-.426c.225-.102.469-.159.716-.166l7.531-.255c.247-.008.494.032.725.119.232.086.444.217.625.385.181.169.327.37.429.595.102.224.159.466.168.712.008.246-.032.491-.119.722-.087.23-.219.442-.388.621-.169.18-.371.325-.597.427-.225.102-.468.159-.715.167zM247.202 80.394l-7.531.254c-.499.017-.985-.164-1.35-.503-.365-.34-.58-.81-.597-1.307-.016-.497.166-.98.507-1.343.341-.364.813-.577 1.312-.594l7.531-.254c.248-.009.495.03.727.117.232.087.444.218.625.386s.327.37.43.594c.102.224.159.467.168.713.008.246-.032.492-.119.723-.087.23-.219.442-.389.622-.169.18-.372.325-.597.426-.226.102-.469.159-.717.166zM247.406 86.391l-7.531.254c-.247.01-.494-.03-.726-.117-.232-.086-.444-.217-.625-.385-.181-.169-.327-.37-.43-.595-.102-.224-.159-.466-.168-.713-.008-.246.032-.492.119-.722.087-.231.219-.442.388-.622.17-.18.373-.325.598-.427.226-.102.469-.158.717-.166l7.531-.254c.247-.009.493.031.725.118.232.087.444.218.625.386.18.168.326.37.429.594.102.224.159.466.167.712.009.246-.032.491-.119.722-.087.23-.218.442-.387.622s-.372.325-.597.427c-.225.101-.468.158-.716.166z"/>
        <path fill="#3F3D56" d="M263.225 47.19l-157.699 5.32.026.75 157.699-5.32-.026-.75z"/>
        <path fill="#3F3D56" d="M252.936 110.406l-133.298 4.497c-3.294.107-6.497-1.09-8.906-3.33-2.408-2.24-3.826-5.34-3.941-8.619l-2.195-64.462c-.108-3.28 1.095-6.467 3.345-8.864 2.251-2.398 5.365-3.808 8.659-3.923l133.299-4.497c3.294-.108 6.497 1.09 8.906 3.33 2.408 2.24 3.826 5.34 3.941 8.618l2.195 64.463c.108 3.279-1.095 6.467-3.346 8.864-2.25 2.397-5.364 3.808-8.659 3.923zm-136.31-83.952c-3.095.108-6.02 1.433-8.134 3.685-2.114 2.252-3.245 5.247-3.143 8.327l2.195 64.463c.108 3.08 1.44 5.992 3.702 8.096 2.263 2.104 5.272 3.229 8.367 3.128l133.298-4.497c3.095-.108 6.02-1.433 8.134-3.685 2.114-2.252 3.245-5.246 3.143-8.327l-2.195-64.462c-.109-3.08-1.44-5.992-3.703-8.096-2.262-2.104-5.271-3.23-8.366-3.129l-133.298 4.497z"/>
        <path fill="#A0616A" d="M61.95 94.456c-.032-.66-.208-1.304-.517-1.888-.308-.584-.742-1.094-1.27-1.493-.528-.4-1.138-.679-1.786-.818-.648-.14-1.32-.136-1.966.01l-5.999-8.414-6.027 2.38L53.025 96c.32 1.065 1.02 1.976 1.97 2.561.949.585 2.08.803 3.18.613 1.1-.19 2.093-.775 2.788-1.645.696-.87 1.047-1.962.987-3.072z"/>
        <path fill="#3F3D56" d="M50.258 93.833L32.105 70.395l6.802-21.276c.498-5.35 3.861-6.843 4.004-6.904l.218-.093 5.92 15.71-4.346 11.533L55.368 87.22l-5.111 6.613z"/>
        <path fill="#A0616A" d="M113.298 21.58c-.658.082-1.29.307-1.852.658-.561.352-1.038.822-1.397 1.377-.36.554-.592 1.18-.682 1.835-.089.654-.034 1.32.163 1.95l-7.965 6.604 2.851 5.796 11.117-9.483c1.042-.399 1.901-1.165 2.413-2.152.513-.987.644-2.127.368-3.204-.275-1.077-.938-2.016-1.863-2.64-.924-.623-2.046-.886-3.153-.741z"/>
        <path fill="#3F3D56" d="M113.577 33.23L91.502 53.056 69.664 47.95c-5.397-.08-7.153-3.302-7.225-3.44l-.11-.209 15.278-7.088 11.89 3.42 17.06-11.964 7.02 4.56z"/>
        <path fill="#A0616A" d="M75.34 174.168h5.93l2.822-22.771-8.754.001.002 22.77z"/>
        <path fill="#2F2E41" d="M92.71 179.649l-18.641.001v-7.168l12.255-.001c1.694 0 3.318.67 4.515 1.861 1.198 1.192 1.87 2.809 1.87 4.494v.813z"/>
        <path fill="#A0616A" d="M51.634 174.168h5.931l2.822-22.771-8.754.001.001 22.77z"/>
        <path fill="#2F2E41" d="M69.004 179.649l-18.64.001-.001-7.168 12.256-.001c.838 0 1.668.165 2.443.484.775.319 1.479.787 2.072 1.377.593.591 1.063 1.291 1.384 2.062.32.771.486 1.597.486 2.432v.813zM49.525 91.056l.483 33.706.484 44.3 10.644-.964 5.321-61.152 6.773 61.152h10.988l1.107-61.634-3.87-13.482-31.93-1.926z"/>
        <path fill="#3F3D56" d="M70.356 95.582c-11.58 0-22.24-5.216-22.384-5.288l-.12-.06-.972-23.213c-.281-.82-5.83-17.006-6.77-22.151-.953-5.212 12.848-9.787 14.524-10.322l.38-4.193 15.466-1.659 1.96 5.366 5.548 2.07c.63.235 1.15.692 1.463 1.283.314.592.398 1.277.238 1.926l-3.084 12.482 7.532 41.294-1.622.07c-3.836 1.648-7.981 2.464-12.159 2.395z"/>
        <path fill="#A0616A" d="M63.353 26.04c6.15 0 11.135-4.961 11.135-11.082S69.503 3.875 63.353 3.875c-6.15 0-11.135 4.962-11.135 11.083 0 6.12 4.985 11.083 11.135 11.083z"/>
        <path fill="#2F2E41" d="M54.334 25.687c2.122 2.25 6.063 1.042 6.34-2.032.021-.238.02-.478-.005-.717-.143-1.361-.933-2.597-.744-4.035.043-.358.177-.698.39-.99 1.69-2.254 5.66 1.008 7.256-1.033.978-1.25-.172-3.22.579-4.619.991-1.845 3.927-.935 5.768-1.946 2.048-1.124 1.926-4.252.577-6.155C72.851 1.84 69.968.602 67.121.423c-2.848-.178-5.675.588-8.333 1.619-3.02 1.171-6.015 2.79-7.874 5.434-2.26 3.214-2.478 7.536-1.348 11.294.688 2.287 3.035 5.08 4.768 6.917z"/>
        <path fill="#CACACA" d="M368.548 180.252H.452c-.12 0-.235-.048-.32-.132-.084-.084-.132-.199-.132-.318 0-.12.048-.234.132-.319.085-.084.2-.131.32-.131h368.096c.12 0 .235.047.32.131.084.085.132.199.132.319 0 .119-.048.234-.132.318-.085.084-.2.132-.32.132z"/>
        <path fill="#FFB8B8" d="M205.268 242.243h5.342l2.542-20.51-7.885.001.001 20.509z"/>
        <path fill="#2F2E41" d="M203.905 240.507h10.522c1.778 0 3.483.703 4.741 1.954 1.257 1.252 1.963 2.949 1.963 4.719v.217l-17.225.001-.001-6.891z"/>
        <path fill="#FFB8B8" d="M155.592 242.243h5.342l2.542-20.51-7.885.001.001 20.509z"/>
        <path fill="#2F2E41" d="M154.229 240.507h10.521c1.779 0 3.484.703 4.741 1.954 1.258 1.252 1.964 2.949 1.964 4.719v.217l-17.226.001v-6.891zM207.398 138.163s4.484 12.114 3.843 17.215c-.64 5.101 4.484 40.806 3.844 43.994-.641 3.188.64 19.128 0 21.678-.641 2.55 1.798 5.597.517 8.147-1.282 2.55-3.08 7.793-3.08 7.793l-8.327-.638-1.282-7.013s-3.843-.638-3.203-4.463c.641-3.826-3.203-29.33-3.203-29.33l-10.89-35.705-15.374 32.517s-.641 22.954-2.562 25.504c-1.922 2.55 1.921 9.564 0 12.114-1.922 2.551-3.844 7.014-3.844 7.014h-9.609v-5.101s-5.765-3.188 0-12.752l3.896-57.435 3.843-26.141 45.431 2.602z"/>
        <path fill="#FFB8B8" d="M183.517 57.992c6.608 0 11.965-5.331 11.965-11.908 0-6.578-5.357-11.91-11.965-11.91s-11.965 5.333-11.965 11.91c0 6.576 5.357 11.908 11.965 11.908z"/>
        <path fill="#2F2E41" d="M193.699 45.262l-2.533 6.44c-1.038 2.64-2.227 5.464-4.66 6.937-3.003 1.818-7.015.931-9.921-1.039-2.613-1.772-4.619-4.297-5.749-7.237-1.129-2.94-1.327-6.153-.568-9.208.759-3.056 2.439-5.807 4.815-7.884 2.376-2.077 5.334-3.38 8.476-3.736l.12 2.156 2.658-2.217c.196.335.467.622.791.84.324.216.693.357 1.079.411.387.054.781.021 1.152-.098.372-.119.712-.32.994-.588-.698 1.44.108 3.197 1.271 4.3 1.43 1.356 5.519 2.985 5.349 5.408-.113 1.617-2.615 3.839-3.274 5.515z"/>
        <path fill="#FFB8B8" d="M150.582 155.779c-.412-.613-.685-1.308-.798-2.036-.114-.728-.065-1.473.142-2.181.207-.707.567-1.361 1.056-1.916.488-.554 1.093-.995 1.771-1.291l-.239-11.52 6.998-1.853.108 16.274c.425 1.167.405 2.448-.056 3.602-.461 1.153-1.331 2.098-2.445 2.655-1.114.558-2.395.689-3.6.369-1.204-.319-2.25-1.068-2.937-2.103z"/>
        <path fill="#3F3D56" d="M174.629 65.351s9.272-4.614 18.029-1.538c8.756 3.076 13.392 6.665 13.392 6.665l-5.666 29.736 7.727 39.989s-39.663-3.076-43.269 0c-3.605 3.076-3.605-3.589-3.605-3.589l3.09-37.938-5.666-24.096 15.968-9.229z"/>
        <path fill="#FFB8B8" d="M213.762 156.461c-.569-.472-1.026-1.063-1.34-1.731-.315-.667-.478-1.395-.479-2.132-.001-.737.16-1.466.473-2.134.312-.669.768-1.261 1.335-1.735l-3.479-10.99 6.195-3.733 4.694 15.589c.737 1.001 1.079 2.236.962 3.472-.117 1.236-.685 2.386-1.597 3.232-.912.846-2.105 1.33-3.351 1.36-1.247.03-2.461-.396-3.413-1.198z"/>
        <path fill="#3F3D56" d="M202.444 70.478h3.606s5.666 3.59 5.666 8.716c0 5.127 8.242 65.111 8.242 65.111l-8.757 1.538-7.727-42.04-5.666-11.28 4.636-22.044zM168.448 74.58h-9.787s-3.091 3.076-4.636 10.254c-1.545 7.177-3.09 35.375-3.09 35.375l1.03 25.634h7.726l1.03-33.324 5.151-21.533 2.576-16.406z"/>
    </g>
    <defs>
        <clipPath id="clip0">
            <path fill="#fff" d="M0 0H369V247H0z" transform="translate(0 0.397461)"/>
        </clipPath>
    </defs>
</svg>
